<svg width="1036" height="280" viewBox="0 0 1036 280" fill="none" xmlns="http://www.w3.org/2000/svg">
<rect x="0.5" y="0.5" width="279" height="279" rx="139.5" stroke="#1F3864"/>
<path d="M90.3006 85V73.8H94.8606C96.0552 73.8 97.1006 74.04 97.9966 74.52C98.9032 74.9893 99.6072 75.6453 100.109 76.488C100.61 77.3307 100.861 78.3013 100.861 79.4C100.861 80.4987 100.61 81.4693 100.109 82.312C99.6072 83.1547 98.9032 83.816 97.9966 84.296C97.1006 84.7653 96.0552 85 94.8606 85H90.3006ZM91.4846 83.976H94.7966C95.7886 83.976 96.6472 83.784 97.3726 83.4C98.1086 83.0053 98.6792 82.4667 99.0846 81.784C99.4899 81.0907 99.6926 80.296 99.6926 79.4C99.6926 78.4933 99.4899 77.6987 99.0846 77.016C98.6792 76.3333 98.1086 75.8 97.3726 75.416C96.6472 75.0213 95.7886 74.824 94.7966 74.824H91.4846V83.976ZM108.415 85.096C107.573 85.096 106.789 84.9573 106.063 84.68C105.349 84.392 104.725 83.992 104.191 83.48C103.669 82.9573 103.258 82.3547 102.959 81.672C102.671 80.9787 102.527 80.2213 102.527 79.4C102.527 78.5787 102.671 77.8267 102.959 77.144C103.258 76.4507 103.669 75.848 104.191 75.336C104.725 74.8133 105.349 74.4133 106.063 74.136C106.778 73.848 107.562 73.704 108.415 73.704C109.258 73.704 110.037 73.848 110.751 74.136C111.466 74.4133 112.085 74.808 112.607 75.32C113.141 75.832 113.551 76.4347 113.839 77.128C114.138 77.8213 114.287 78.5787 114.287 79.4C114.287 80.2213 114.138 80.9787 113.839 81.672C113.551 82.3653 113.141 82.968 112.607 83.48C112.085 83.992 111.466 84.392 110.751 84.68C110.037 84.9573 109.258 85.096 108.415 85.096ZM108.415 84.04C109.087 84.04 109.706 83.928 110.271 83.704C110.847 83.4693 111.343 83.144 111.759 82.728C112.186 82.3013 112.517 81.8107 112.751 81.256C112.986 80.6907 113.103 80.072 113.103 79.4C113.103 78.728 112.986 78.1147 112.751 77.56C112.517 76.9947 112.186 76.504 111.759 76.088C111.343 75.6613 110.847 75.336 110.271 75.112C109.706 74.8773 109.087 74.76 108.415 74.76C107.743 74.76 107.119 74.8773 106.543 75.112C105.967 75.336 105.466 75.6613 105.039 76.088C104.623 76.504 104.293 76.9947 104.047 77.56C103.813 78.1147 103.695 78.728 103.695 79.4C103.695 80.0613 103.813 80.6747 104.047 81.24C104.293 81.8053 104.623 82.3013 105.039 82.728C105.466 83.144 105.967 83.4693 106.543 83.704C107.119 83.928 107.743 84.04 108.415 84.04ZM114.993 85L120.113 73.8H121.281L126.401 85H125.153L120.449 74.488H120.929L116.225 85H114.993ZM117.009 82.008L117.361 81.048H123.873L124.225 82.008H117.009ZM128.254 85V73.8H129.23L136.958 83.528H136.446V73.8H137.614V85H136.638L128.926 75.272H129.438V85H128.254ZM149.461 73.8H150.629V85H149.461V73.8ZM142.453 85H141.269V73.8H142.453V85ZM149.573 79.832H142.325V78.792H149.573V79.832ZM160.648 85V74.824H156.712V73.8H165.768V74.824H161.832V85H160.648ZM175.852 73.8H177.02V85H175.852V73.8ZM168.844 85H167.66V73.8H168.844V85ZM175.964 79.832H168.716V78.792H175.964V79.832ZM185.188 85.096C183.758 85.096 182.633 84.6853 181.812 83.864C180.99 83.0427 180.58 81.8267 180.58 80.216V73.8H181.764V80.168C181.764 81.4907 182.062 82.4667 182.66 83.096C183.257 83.7253 184.1 84.04 185.188 84.04C186.286 84.04 187.134 83.7253 187.732 83.096C188.329 82.4667 188.628 81.4907 188.628 80.168V73.8H189.78V80.216C189.78 81.8267 189.369 83.0427 188.548 83.864C187.737 84.6853 186.617 85.096 185.188 85.096ZM82.7381 109V97.8H86.9301C87.8794 97.8 88.6954 97.9547 89.3781 98.264C90.0607 98.5627 90.5834 99 90.9461 99.576C91.3194 100.141 91.5061 100.829 91.5061 101.64C91.5061 102.429 91.3194 103.112 90.9461 103.688C90.5834 104.253 90.0607 104.691 89.3781 105C88.6954 105.309 87.8794 105.464 86.9301 105.464H83.3941L83.9221 104.904V109H82.7381ZM83.9221 105L83.3941 104.424H86.8981C88.0181 104.424 88.8661 104.184 89.4421 103.704C90.0287 103.213 90.3221 102.525 90.3221 101.64C90.3221 100.744 90.0287 100.051 89.4421 99.56C88.8661 99.0693 88.0181 98.824 86.8981 98.824H83.3941L83.9221 98.264V105ZM102.258 97.8H103.426V109H102.258V97.8ZM95.2502 109H94.0662V97.8H95.2502V109ZM102.37 103.832H95.1222V102.792H102.37V103.832ZM107.082 109V97.8H108.266V109H107.082ZM106.634 96.888L108.826 94.904H110.346L107.754 96.888H106.634ZM116.097 109V97.8H120.929C122.177 97.8 123.143 98.0507 123.825 98.552C124.519 99.0533 124.865 99.7627 124.865 100.68C124.865 101.288 124.721 101.8 124.433 102.216C124.156 102.632 123.772 102.947 123.281 103.16C122.801 103.373 122.273 103.48 121.697 103.48L121.969 103.096C122.684 103.096 123.297 103.208 123.809 103.432C124.332 103.645 124.737 103.971 125.025 104.408C125.313 104.835 125.457 105.368 125.457 106.008C125.457 106.957 125.105 107.693 124.401 108.216C123.708 108.739 122.657 109 121.249 109H116.097ZM117.281 108.024H121.233C122.215 108.024 122.967 107.859 123.489 107.528C124.012 107.187 124.273 106.648 124.273 105.912C124.273 105.187 124.012 104.659 123.489 104.328C122.967 103.987 122.215 103.816 121.233 103.816H117.153V102.84H120.849C121.745 102.84 122.439 102.669 122.929 102.328C123.431 101.987 123.681 101.48 123.681 100.808C123.681 100.125 123.431 99.6187 122.929 99.288C122.439 98.9467 121.745 98.776 120.849 98.776H117.281V108.024ZM126.368 109L131.488 97.8H132.656L137.776 109H136.528L131.824 98.488H132.304L127.6 109H126.368ZM128.384 106.008L128.736 105.048H135.248L135.6 106.008H128.384ZM132.288 97L131.888 96.504C132.208 96.3547 132.443 96.1893 132.592 96.008C132.752 95.8267 132.832 95.6133 132.832 95.368C132.832 95.144 132.752 94.9573 132.592 94.808C132.432 94.6587 132.219 94.584 131.952 94.584C131.621 94.584 131.301 94.6853 130.992 94.888L130.72 94.328C130.901 94.1893 131.109 94.088 131.344 94.024C131.589 93.9493 131.824 93.912 132.048 93.912C132.496 93.912 132.859 94.04 133.136 94.296C133.424 94.5413 133.568 94.872 133.568 95.288C133.568 95.6613 133.461 95.992 133.248 96.28C133.045 96.5573 132.725 96.7973 132.288 97ZM144.368 109.096C143.526 109.096 142.742 108.957 142.016 108.68C141.302 108.392 140.678 107.992 140.144 107.48C139.622 106.957 139.211 106.355 138.912 105.672C138.624 104.979 138.48 104.221 138.48 103.4C138.48 102.579 138.624 101.827 138.912 101.144C139.211 100.451 139.622 99.848 140.144 99.336C140.678 98.8133 141.302 98.4133 142.016 98.136C142.731 97.848 143.515 97.704 144.368 97.704C145.211 97.704 145.99 97.848 146.704 98.136C147.419 98.4133 148.038 98.808 148.56 99.32C149.094 99.832 149.504 100.435 149.792 101.128C150.091 101.821 150.24 102.579 150.24 103.4C150.24 104.221 150.091 104.979 149.792 105.672C149.504 106.365 149.094 106.968 148.56 107.48C148.038 107.992 147.419 108.392 146.704 108.68C145.99 108.957 145.211 109.096 144.368 109.096ZM144.368 108.04C145.04 108.04 145.659 107.928 146.224 107.704C146.8 107.469 147.296 107.144 147.712 106.728C148.139 106.301 148.47 105.811 148.704 105.256C148.939 104.691 149.056 104.072 149.056 103.4C149.056 102.728 148.939 102.115 148.704 101.56C148.47 100.995 148.139 100.504 147.712 100.088C147.296 99.6613 146.8 99.336 146.224 99.112C145.659 98.8773 145.04 98.76 144.368 98.76C143.696 98.76 143.072 98.8773 142.496 99.112C141.92 99.336 141.419 99.6613 140.992 100.088C140.576 100.504 140.246 100.995 140 101.56C139.766 102.115 139.648 102.728 139.648 103.4C139.648 104.061 139.766 104.675 140 105.24C140.246 105.805 140.576 106.301 140.992 106.728C141.419 107.144 141.92 107.469 142.496 107.704C143.072 107.928 143.696 108.04 144.368 108.04ZM165.274 97.8H166.442V109H165.274V97.8ZM158.266 109H157.082V97.8H158.266V109ZM165.386 103.832H158.138V102.792H165.386V103.832ZM170.097 109V97.8H171.281V109H170.097ZM175.982 102.808H181.902V103.816H175.982V102.808ZM176.11 107.976H182.846V109H174.926V97.8H182.606V98.824H176.11V107.976ZM176.142 96.888L178.222 95.384H179.342L181.422 96.888H180.334L178.334 95.672H179.23L177.23 96.888H176.142ZM180.878 95.832L180.558 95.432C180.771 95.3253 180.936 95.2027 181.054 95.064C181.171 94.9253 181.23 94.7813 181.23 94.632C181.23 94.472 181.171 94.344 181.054 94.248C180.936 94.152 180.782 94.104 180.59 94.104C180.355 94.104 180.126 94.168 179.902 94.296L179.662 93.832C179.811 93.7253 179.971 93.6507 180.142 93.608C180.323 93.5547 180.504 93.528 180.686 93.528C181.048 93.528 181.331 93.6293 181.534 93.832C181.736 94.024 181.838 94.2693 181.838 94.568C181.838 94.8453 181.752 95.096 181.582 95.32C181.422 95.5333 181.187 95.704 180.878 95.832ZM185.629 109V97.8H186.605L191.725 106.536H191.213L196.285 97.8H197.261V109H196.125V99.576H196.397L191.725 107.576H191.165L186.461 99.576H186.765V109H185.629Z" fill="#1F3864"/>
<path d="M76.068 170V169.896C76.588 169.203 77.0213 168.579 77.368 168.024C77.7147 167.435 77.9747 166.845 78.148 166.256C78.356 165.667 78.4947 165.025 78.564 164.332C78.6333 163.639 78.668 162.824 78.668 161.888V139.996H74.092V139.476C76.5533 138.436 78.8933 137.257 81.112 135.94C83.3307 134.588 85.428 132.959 87.404 131.052H87.976V161.888C87.976 162.824 88.0107 163.639 88.08 164.332C88.1493 165.025 88.2707 165.667 88.444 166.256C88.652 166.845 88.9293 167.435 89.276 168.024C89.6227 168.579 90.056 169.203 90.576 169.896V170H76.068ZM99.5078 170.26C98.2945 170.26 97.2545 169.844 96.3878 169.012C95.5558 168.145 95.1398 167.105 95.1398 165.892C95.1398 164.679 95.5558 163.656 96.3878 162.824C97.2545 161.957 98.2945 161.524 99.5078 161.524C100.721 161.524 101.744 161.957 102.576 162.824C103.442 163.656 103.876 164.679 103.876 165.892C103.876 167.105 103.442 168.145 102.576 169.012C101.744 169.844 100.721 170.26 99.5078 170.26ZM121.424 170.78C119.136 170.78 117.074 170.381 115.236 169.584C113.399 168.752 111.822 167.643 110.504 166.256C109.222 164.835 108.234 163.171 107.54 161.264C106.847 159.357 106.5 157.329 106.5 155.18C106.5 153.1 106.864 150.881 107.592 148.524C108.32 146.167 109.568 143.896 111.336 141.712C113.139 139.493 115.548 137.448 118.564 135.576C121.615 133.704 125.446 132.231 130.056 131.156L130.264 131.728C128.15 132.491 126.312 133.496 124.752 134.744C123.192 135.992 121.858 137.396 120.748 138.956C119.674 140.481 118.79 142.128 118.096 143.896C117.438 145.664 116.935 147.432 116.588 149.2C117.108 148.056 117.958 147.033 119.136 146.132C120.315 145.196 121.979 144.728 124.128 144.728C125.758 144.728 127.3 145.005 128.756 145.56C130.247 146.115 131.547 146.929 132.656 148.004C133.8 149.044 134.702 150.327 135.36 151.852C136.019 153.377 136.348 155.111 136.348 157.052C136.348 159.097 135.95 160.969 135.152 162.668C134.355 164.367 133.28 165.823 131.928 167.036C130.576 168.215 128.999 169.133 127.196 169.792C125.394 170.451 123.47 170.78 121.424 170.78ZM121.736 169.636C123.4 169.636 124.683 168.648 125.584 166.672C126.52 164.661 126.988 161.749 126.988 157.936C126.988 154.123 126.503 151.419 125.532 149.824C124.562 148.229 123.227 147.432 121.528 147.432C120.419 147.432 119.379 147.744 118.408 148.368C117.472 148.957 116.762 149.893 116.276 151.176C116.138 152.112 116.034 153.031 115.964 153.932C115.93 154.833 115.912 155.717 115.912 156.584C115.912 158.283 116.016 159.929 116.224 161.524C116.467 163.084 116.814 164.471 117.264 165.684C117.75 166.863 118.356 167.816 119.084 168.544C119.812 169.272 120.696 169.636 121.736 169.636ZM156.256 170.78C153.968 170.78 151.801 170.277 149.756 169.272C147.745 168.267 145.96 166.88 144.4 165.112C142.874 163.309 141.661 161.212 140.76 158.82C139.893 156.393 139.46 153.776 139.46 150.968C139.46 148.125 139.893 145.508 140.76 143.116C141.661 140.689 142.874 138.592 144.4 136.824C145.925 135.056 147.71 133.669 149.756 132.664C151.801 131.659 153.968 131.156 156.256 131.156C158.578 131.156 160.78 131.659 162.86 132.664C164.94 133.669 166.76 135.056 168.32 136.824C169.88 138.592 171.11 140.689 172.012 143.116C172.948 145.508 173.416 148.125 173.416 150.968C173.416 153.776 172.948 156.393 172.012 158.82C171.11 161.212 169.862 163.309 168.268 165.112C166.708 166.88 164.888 168.267 162.808 169.272C160.728 170.277 158.544 170.78 156.256 170.78ZM156.256 169.636C157.608 169.636 158.734 169.168 159.636 168.232C160.572 167.261 161.317 165.944 161.872 164.28C162.461 162.616 162.877 160.657 163.12 158.404C163.362 156.116 163.484 153.637 163.484 150.968C163.484 148.264 163.362 145.785 163.12 143.532C162.877 141.244 162.478 139.268 161.924 137.604C161.369 135.94 160.624 134.64 159.688 133.704C158.752 132.768 157.608 132.3 156.256 132.3C154.904 132.3 153.777 132.768 152.876 133.704C152.009 134.64 151.316 135.94 150.796 137.604C150.276 139.268 149.912 141.244 149.704 143.532C149.496 145.785 149.392 148.264 149.392 150.968C149.392 153.637 149.496 156.116 149.704 158.404C149.912 160.657 150.276 162.616 150.796 164.28C151.316 165.944 152.009 167.261 152.876 168.232C153.777 169.168 154.904 169.636 156.256 169.636ZM190.405 170.78C188.36 170.78 186.471 170.555 184.737 170.104C183.004 169.653 181.496 168.995 180.213 168.128C178.931 167.261 177.925 166.221 177.197 165.008C176.504 163.795 176.157 162.425 176.157 160.9C176.157 158.924 176.816 157.156 178.133 155.596C179.451 154.036 181.583 152.84 184.529 152.008C183.212 151.245 182.12 150.465 181.253 149.668C180.421 148.836 179.745 147.987 179.225 147.12C178.74 146.253 178.393 145.404 178.185 144.572C177.977 143.705 177.873 142.856 177.873 142.024C177.873 140.395 178.185 138.921 178.809 137.604C179.433 136.252 180.317 135.108 181.461 134.172C182.605 133.201 183.975 132.456 185.569 131.936C187.199 131.416 189.001 131.156 190.977 131.156C192.815 131.156 194.513 131.381 196.073 131.832C197.633 132.283 198.968 132.907 200.077 133.704C201.221 134.467 202.105 135.385 202.729 136.46C203.388 137.535 203.717 138.713 203.717 139.996C203.717 140.689 203.596 141.417 203.353 142.18C203.111 142.908 202.695 143.619 202.105 144.312C201.551 145.005 200.788 145.647 199.817 146.236C198.881 146.825 197.685 147.328 196.229 147.744C197.963 148.645 199.419 149.581 200.597 150.552C201.776 151.523 202.729 152.511 203.457 153.516C204.185 154.521 204.705 155.544 205.017 156.584C205.329 157.589 205.485 158.612 205.485 159.652C205.485 161.385 205.104 162.945 204.341 164.332C203.579 165.684 202.521 166.845 201.169 167.816C199.817 168.752 198.223 169.48 196.385 170C194.548 170.52 192.555 170.78 190.405 170.78ZM194.201 146.756C194.305 146.791 194.392 146.825 194.461 146.86L194.877 147.068C194.981 147.103 195.068 147.137 195.137 147.172C196.073 146.167 196.697 145.057 197.009 143.844C197.356 142.596 197.529 141.365 197.529 140.152C197.529 137.691 196.975 135.784 195.865 134.432C194.756 133.045 193.196 132.352 191.185 132.352C189.244 132.352 187.753 132.907 186.713 134.016C185.708 135.125 185.205 136.477 185.205 138.072C185.205 138.973 185.379 139.805 185.725 140.568C186.072 141.296 186.609 142.007 187.337 142.7C188.065 143.393 188.984 144.069 190.093 144.728C191.237 145.387 192.607 146.063 194.201 146.756ZM190.405 169.584C192.624 169.584 194.409 168.977 195.761 167.764C197.148 166.516 197.841 164.904 197.841 162.928C197.841 161.784 197.599 160.779 197.113 159.912C196.628 159.045 195.9 158.248 194.929 157.52C193.993 156.757 192.832 156.029 191.445 155.336C190.059 154.643 188.464 153.897 186.661 153.1L185.569 152.58C184.529 153.585 183.749 154.781 183.229 156.168C182.744 157.52 182.501 158.976 182.501 160.536C182.501 161.888 182.675 163.119 183.021 164.228C183.368 165.337 183.871 166.291 184.529 167.088C185.188 167.885 186.003 168.509 186.973 168.96C187.979 169.376 189.123 169.584 190.405 169.584Z" fill="#1F3864"/>
<path d="M101.996 206V194.552H97.5681V193.4H107.756V194.552H103.328V206H101.996ZM112.802 206V201.32L113.108 202.148L107.762 193.4H109.184L113.882 201.086H113.126L117.824 193.4H119.156L113.81 202.148L114.116 201.32V206H112.802ZM113.684 192.5L113.234 191.942C113.594 191.774 113.858 191.588 114.026 191.384C114.206 191.18 114.296 190.94 114.296 190.664C114.296 190.412 114.206 190.202 114.026 190.034C113.846 189.866 113.606 189.782 113.306 189.782C112.934 189.782 112.574 189.896 112.226 190.124L111.92 189.494C112.124 189.338 112.358 189.224 112.622 189.152C112.898 189.068 113.162 189.026 113.414 189.026C113.918 189.026 114.326 189.17 114.638 189.458C114.962 189.734 115.124 190.106 115.124 190.574C115.124 190.994 115.004 191.366 114.764 191.69C114.536 192.002 114.176 192.272 113.684 192.5ZM126.023 206V193.4H131.153C132.497 193.4 133.673 193.67 134.681 194.21C135.701 194.738 136.493 195.476 137.057 196.424C137.621 197.372 137.903 198.464 137.903 199.7C137.903 200.936 137.621 202.028 137.057 202.976C136.493 203.924 135.701 204.668 134.681 205.208C133.673 205.736 132.497 206 131.153 206H126.023ZM127.355 204.848H131.081C132.197 204.848 133.163 204.632 133.979 204.2C134.807 203.756 135.449 203.15 135.905 202.382C136.361 201.602 136.589 200.708 136.589 199.7C136.589 198.68 136.361 197.786 135.905 197.018C135.449 196.25 134.807 195.65 133.979 195.218C133.163 194.774 132.197 194.552 131.081 194.552H127.355V204.848ZM124.115 200.114V199.052H131.099V200.114H124.115ZM146.4 206.108C145.452 206.108 144.57 205.952 143.754 205.64C142.95 205.316 142.248 204.866 141.648 204.29C141.06 203.702 140.598 203.024 140.262 202.256C139.938 201.476 139.776 200.624 139.776 199.7C139.776 198.776 139.938 197.93 140.262 197.162C140.598 196.382 141.06 195.704 141.648 195.128C142.248 194.54 142.95 194.09 143.754 193.778C144.558 193.454 145.44 193.292 146.4 193.292C147.348 193.292 148.224 193.454 149.028 193.778C149.832 194.09 150.528 194.534 151.116 195.11C151.716 195.686 152.178 196.364 152.502 197.144C152.838 197.924 153.006 198.776 153.006 199.7C153.006 200.624 152.838 201.476 152.502 202.256C152.178 203.036 151.716 203.714 151.116 204.29C150.528 204.866 149.832 205.316 149.028 205.64C148.224 205.952 147.348 206.108 146.4 206.108ZM146.4 204.92C147.156 204.92 147.852 204.794 148.488 204.542C149.136 204.278 149.694 203.912 150.162 203.444C150.642 202.964 151.014 202.412 151.278 201.788C151.542 201.152 151.674 200.456 151.674 199.7C151.674 198.944 151.542 198.254 151.278 197.63C151.014 196.994 150.642 196.442 150.162 195.974C149.694 195.494 149.136 195.128 148.488 194.876C147.852 194.612 147.156 194.48 146.4 194.48C145.644 194.48 144.942 194.612 144.294 194.876C143.646 195.128 143.082 195.494 142.602 195.974C142.134 196.442 141.762 196.994 141.486 197.63C141.222 198.254 141.09 198.944 141.09 199.7C141.09 200.444 141.222 201.134 141.486 201.77C141.762 202.406 142.134 202.964 142.602 203.444C143.082 203.912 143.646 204.278 144.294 204.542C144.942 204.794 145.644 204.92 146.4 204.92ZM143.43 192.374L145.77 190.682H147.03L149.37 192.374H148.146L145.896 191.006H146.904L144.654 192.374H143.43ZM149.118 190.88L146.508 188.936H148.074L150.234 190.88H149.118ZM155.991 206V193.4H157.089L165.783 204.344H165.207V193.4H166.521V206H165.423L156.747 195.056H157.323V206H155.991ZM176.16 206.108C175.2 206.108 174.312 205.952 173.496 205.64C172.692 205.316 171.99 204.866 171.39 204.29C170.802 203.714 170.34 203.036 170.004 202.256C169.68 201.476 169.518 200.624 169.518 199.7C169.518 198.776 169.68 197.924 170.004 197.144C170.34 196.364 170.808 195.686 171.408 195.11C172.008 194.534 172.71 194.09 173.514 193.778C174.33 193.454 175.218 193.292 176.178 193.292C177.138 193.292 178.014 193.442 178.806 193.742C179.61 194.042 180.294 194.498 180.858 195.11L180.03 195.956C179.502 195.428 178.92 195.05 178.284 194.822C177.648 194.594 176.964 194.48 176.232 194.48C175.452 194.48 174.732 194.612 174.072 194.876C173.424 195.128 172.854 195.494 172.362 195.974C171.882 196.442 171.504 196.994 171.228 197.63C170.964 198.254 170.832 198.944 170.832 199.7C170.832 200.444 170.964 201.134 171.228 201.77C171.504 202.406 171.882 202.964 172.362 203.444C172.854 203.912 173.424 204.278 174.072 204.542C174.732 204.794 175.446 204.92 176.214 204.92C176.934 204.92 177.612 204.812 178.248 204.596C178.896 204.38 179.49 204.014 180.03 203.498L180.786 204.506C180.186 205.034 179.484 205.436 178.68 205.712C177.876 205.976 177.036 206.108 176.16 206.108ZM179.508 204.344V199.7H180.786V204.506L179.508 204.344Z" fill="#1F3864"/>
<rect x="252.5" y="0.5" width="279" height="279" rx="139.5" stroke="#1F3864"/>
<path d="M357.68 85L352.72 73.8H354L358.64 84.344H357.936L362.608 73.8H363.808L358.848 85H357.68ZM370.236 85.096C369.393 85.096 368.609 84.9573 367.884 84.68C367.169 84.392 366.545 83.992 366.012 83.48C365.489 82.9573 365.078 82.3547 364.78 81.672C364.492 80.9787 364.348 80.2213 364.348 79.4C364.348 78.5787 364.492 77.8267 364.78 77.144C365.078 76.4507 365.489 75.848 366.012 75.336C366.545 74.8133 367.169 74.4133 367.884 74.136C368.598 73.848 369.382 73.704 370.236 73.704C371.078 73.704 371.857 73.848 372.572 74.136C373.286 74.4133 373.905 74.808 374.428 75.32C374.961 75.832 375.372 76.4347 375.66 77.128C375.958 77.8213 376.108 78.5787 376.108 79.4C376.108 80.2213 375.958 80.9787 375.66 81.672C375.372 82.3653 374.961 82.968 374.428 83.48C373.905 83.992 373.286 84.392 372.572 84.68C371.857 84.9573 371.078 85.096 370.236 85.096ZM370.236 84.04C370.908 84.04 371.526 83.928 372.092 83.704C372.668 83.4693 373.164 83.144 373.58 82.728C374.006 82.3013 374.337 81.8107 374.572 81.256C374.806 80.6907 374.924 80.072 374.924 79.4C374.924 78.728 374.806 78.1147 374.572 77.56C374.337 76.9947 374.006 76.504 373.58 76.088C373.164 75.6613 372.668 75.336 372.092 75.112C371.526 74.8773 370.908 74.76 370.236 74.76C369.564 74.76 368.94 74.8773 368.364 75.112C367.788 75.336 367.286 75.6613 366.86 76.088C366.444 76.504 366.113 76.9947 365.868 77.56C365.633 78.1147 365.516 78.728 365.516 79.4C365.516 80.0613 365.633 80.6747 365.868 81.24C366.113 81.8053 366.444 82.3013 366.86 82.728C367.286 83.144 367.788 83.4693 368.364 83.704C368.94 83.928 369.564 84.04 370.236 84.04ZM367.596 72.888L369.676 71.384H370.796L372.876 72.888H371.788L369.788 71.672H370.684L368.684 72.888H367.596ZM371.692 71.56L373.628 69.832H375.004L372.7 71.56H371.692ZM378.762 85V73.8H379.738L387.466 83.528H386.954V73.8H388.122V85H387.146L379.434 75.272H379.946V85H378.762ZM400.829 85.096C399.986 85.096 399.207 84.9573 398.493 84.68C397.778 84.392 397.159 83.992 396.637 83.48C396.114 82.968 395.703 82.3653 395.405 81.672C395.117 80.9787 394.973 80.2213 394.973 79.4C394.973 78.5787 395.117 77.8213 395.405 77.128C395.703 76.4347 396.114 75.832 396.637 75.32C397.17 74.808 397.794 74.4133 398.509 74.136C399.223 73.848 400.002 73.704 400.845 73.704C401.655 73.704 402.418 73.8427 403.133 74.12C403.847 74.3867 404.45 74.792 404.941 75.336L404.189 76.088C403.73 75.6187 403.223 75.2827 402.669 75.08C402.114 74.8667 401.517 74.76 400.877 74.76C400.205 74.76 399.581 74.8773 399.005 75.112C398.429 75.336 397.927 75.6613 397.501 76.088C397.074 76.504 396.738 76.9947 396.493 77.56C396.258 78.1147 396.141 78.728 396.141 79.4C396.141 80.072 396.258 80.6907 396.493 81.256C396.738 81.8107 397.074 82.3013 397.501 82.728C397.927 83.144 398.429 83.4693 399.005 83.704C399.581 83.928 400.205 84.04 400.877 84.04C401.517 84.04 402.114 83.9333 402.669 83.72C403.223 83.5067 403.73 83.1653 404.189 82.696L404.941 83.448C404.45 83.992 403.847 84.4027 403.133 84.68C402.418 84.9573 401.65 85.096 400.829 85.096ZM415.657 73.8H416.825V85H415.657V73.8ZM408.649 85H407.465V73.8H408.649V85ZM415.769 79.832H408.521V78.792H415.769V79.832ZM424.992 85.096C423.563 85.096 422.438 84.6853 421.616 83.864C420.795 83.0427 420.384 81.8267 420.384 80.216V73.8H421.568V80.168C421.568 81.4907 421.867 82.4667 422.464 83.096C423.062 83.7253 423.904 84.04 424.992 84.04C426.091 84.04 426.939 83.7253 427.536 83.096C428.134 82.4667 428.432 81.4907 428.432 80.168V73.8H429.584V80.216C429.584 81.8267 429.174 83.0427 428.352 83.864C427.542 84.6853 426.422 85.096 424.992 85.096ZM425.2 73L424.8 72.504C425.12 72.3547 425.355 72.1893 425.504 72.008C425.664 71.8267 425.744 71.6133 425.744 71.368C425.744 71.144 425.664 70.9573 425.504 70.808C425.344 70.6587 425.131 70.584 424.864 70.584C424.534 70.584 424.214 70.6853 423.904 70.888L423.632 70.328C423.814 70.1893 424.022 70.088 424.256 70.024C424.502 69.9493 424.736 69.912 424.96 69.912C425.408 69.912 425.771 70.04 426.048 70.296C426.336 70.5413 426.48 70.872 426.48 71.288C426.48 71.6613 426.374 71.992 426.16 72.28C425.958 72.5573 425.638 72.7973 425.2 73ZM363.967 109.096C363.135 109.096 362.335 108.963 361.567 108.696C360.809 108.419 360.223 108.067 359.807 107.64L360.271 106.728C360.665 107.112 361.193 107.437 361.855 107.704C362.527 107.96 363.231 108.088 363.967 108.088C364.671 108.088 365.241 108.003 365.679 107.832C366.127 107.651 366.452 107.411 366.655 107.112C366.868 106.813 366.975 106.483 366.975 106.12C366.975 105.683 366.847 105.331 366.591 105.064C366.345 104.797 366.02 104.589 365.615 104.44C365.209 104.28 364.761 104.141 364.271 104.024C363.78 103.907 363.289 103.784 362.799 103.656C362.308 103.517 361.855 103.336 361.439 103.112C361.033 102.888 360.703 102.595 360.447 102.232C360.201 101.859 360.079 101.373 360.079 100.776C360.079 100.221 360.223 99.7147 360.511 99.256C360.809 98.7867 361.263 98.4133 361.871 98.136C362.479 97.848 363.257 97.704 364.207 97.704C364.836 97.704 365.46 97.7947 366.079 97.976C366.697 98.1467 367.231 98.3867 367.679 98.696L367.279 99.64C366.799 99.32 366.287 99.0853 365.743 98.936C365.209 98.7867 364.692 98.712 364.191 98.712C363.519 98.712 362.964 98.8027 362.527 98.984C362.089 99.1653 361.764 99.4107 361.551 99.72C361.348 100.019 361.247 100.36 361.247 100.744C361.247 101.181 361.369 101.533 361.615 101.8C361.871 102.067 362.201 102.275 362.607 102.424C363.023 102.573 363.476 102.707 363.967 102.824C364.457 102.941 364.943 103.069 365.423 103.208C365.913 103.347 366.361 103.528 366.767 103.752C367.183 103.965 367.513 104.253 367.759 104.616C368.015 104.979 368.143 105.453 368.143 106.04C368.143 106.584 367.993 107.091 367.695 107.56C367.396 108.019 366.937 108.392 366.319 108.68C365.711 108.957 364.927 109.096 363.967 109.096ZM375.618 109.096C374.776 109.096 373.992 108.957 373.266 108.68C372.552 108.392 371.928 107.992 371.394 107.48C370.872 106.957 370.461 106.355 370.162 105.672C369.874 104.979 369.73 104.221 369.73 103.4C369.73 102.579 369.874 101.821 370.162 101.128C370.461 100.435 370.877 99.832 371.41 99.32C371.944 98.808 372.568 98.4133 373.282 98.136C374.008 97.848 374.797 97.704 375.65 97.704C376.312 97.704 376.882 97.7413 377.362 97.816C377.853 97.8907 378.338 97.928 378.818 97.928C379.341 97.928 379.736 97.8267 380.002 97.624C380.269 97.4213 380.402 97.1173 380.402 96.712C380.402 96.5093 380.37 96.328 380.306 96.168C380.242 95.9973 380.168 95.8373 380.082 95.688L380.834 95.4C380.962 95.5813 381.064 95.7893 381.138 96.024C381.213 96.2587 381.25 96.4987 381.25 96.744C381.25 97.3733 381.037 97.8587 380.61 98.2C380.184 98.5307 379.57 98.696 378.77 98.696C378.504 98.696 378.205 98.68 377.874 98.648C377.554 98.616 377.25 98.5787 376.962 98.536L378.37 98.36C379 98.648 379.549 99.0427 380.018 99.544C380.488 100.045 380.85 100.627 381.106 101.288C381.362 101.939 381.49 102.643 381.49 103.4C381.49 104.221 381.341 104.979 381.042 105.672C380.754 106.365 380.344 106.968 379.81 107.48C379.288 107.992 378.669 108.392 377.954 108.68C377.24 108.957 376.461 109.096 375.618 109.096ZM375.618 108.04C376.29 108.04 376.909 107.923 377.474 107.688C378.05 107.453 378.546 107.128 378.962 106.712C379.389 106.296 379.72 105.805 379.954 105.24C380.189 104.675 380.306 104.061 380.306 103.4C380.306 102.739 380.189 102.125 379.954 101.56C379.72 100.995 379.389 100.504 378.962 100.088C378.546 99.672 378.05 99.3467 377.474 99.112C376.909 98.8773 376.29 98.76 375.618 98.76C374.946 98.76 374.322 98.8773 373.746 99.112C373.17 99.336 372.669 99.6613 372.242 100.088C371.826 100.504 371.496 100.995 371.25 101.56C371.016 102.115 370.898 102.728 370.898 103.4C370.898 104.061 371.016 104.675 371.25 105.24C371.496 105.795 371.826 106.285 372.242 106.712C372.669 107.139 373.17 107.469 373.746 107.704C374.322 107.928 374.946 108.04 375.618 108.04ZM375.826 97L375.426 96.504C375.746 96.3547 375.981 96.1893 376.13 96.008C376.29 95.8267 376.37 95.6133 376.37 95.368C376.37 95.144 376.29 94.9573 376.13 94.808C375.97 94.6587 375.757 94.584 375.49 94.584C375.16 94.584 374.84 94.6853 374.53 94.888L374.258 94.328C374.44 94.1893 374.648 94.088 374.882 94.024C375.128 93.9493 375.362 93.912 375.586 93.912C376.034 93.912 376.397 94.04 376.674 94.296C376.962 94.5413 377.106 94.872 377.106 95.288C377.106 95.6613 377 95.992 376.786 96.28C376.584 96.5573 376.264 96.7973 375.826 97ZM396.524 97.8H397.692V109H396.524V97.8ZM389.516 109H388.332V97.8H389.516V109ZM396.636 103.832H389.388V102.792H396.636V103.832ZM405.859 109.096C404.43 109.096 403.305 108.685 402.483 107.864C401.662 107.043 401.251 105.827 401.251 104.216V97.8H402.435V104.168C402.435 105.491 402.734 106.467 403.331 107.096C403.929 107.725 404.771 108.04 405.859 108.04C406.958 108.04 407.806 107.725 408.403 107.096C409.001 106.467 409.299 105.491 409.299 104.168V97.8H410.451V104.216C410.451 105.827 410.041 107.043 409.219 107.864C408.409 108.685 407.289 109.096 405.859 109.096ZM409.907 98.664V97.8H410.147C410.521 97.8 410.787 97.6933 410.947 97.48C411.118 97.2667 411.203 97.0107 411.203 96.712C411.203 96.5093 411.171 96.3227 411.107 96.152C411.054 95.9813 410.979 95.8267 410.883 95.688L411.635 95.4C411.763 95.5813 411.865 95.7893 411.939 96.024C412.014 96.248 412.051 96.488 412.051 96.744C412.051 97.3093 411.891 97.7733 411.571 98.136C411.251 98.488 410.777 98.664 410.147 98.664H409.907ZM406.947 96.792C406.702 96.792 406.483 96.7387 406.291 96.632C406.099 96.5253 405.923 96.4027 405.763 96.264C405.614 96.1147 405.465 95.9867 405.315 95.88C405.166 95.7627 405.011 95.704 404.851 95.704C404.606 95.704 404.409 95.7947 404.259 95.976C404.121 96.1573 404.041 96.408 404.019 96.728H403.331C403.353 96.1947 403.491 95.768 403.747 95.448C404.014 95.128 404.355 94.968 404.771 94.968C405.017 94.968 405.235 95.0267 405.427 95.144C405.63 95.2507 405.806 95.3787 405.955 95.528C406.115 95.6667 406.265 95.7893 406.403 95.896C406.553 96.0027 406.707 96.056 406.867 96.056C407.113 96.056 407.31 95.9707 407.459 95.8C407.609 95.6187 407.689 95.3733 407.699 95.064H408.387C408.377 95.576 408.238 95.992 407.971 96.312C407.705 96.632 407.363 96.792 406.947 96.792ZM418.609 109.096C417.18 109.096 416.055 108.685 415.233 107.864C414.412 107.043 414.001 105.827 414.001 104.216V97.8H415.185V104.168C415.185 105.491 415.484 106.467 416.081 107.096C416.679 107.725 417.521 108.04 418.609 108.04C419.708 108.04 420.556 107.725 421.153 107.096C421.751 106.467 422.049 105.491 422.049 104.168V97.8H423.201V104.216C423.201 105.827 422.791 107.043 421.969 107.864C421.159 108.685 420.039 109.096 418.609 109.096Z" fill="#1F3864"/>
<path d="M351.588 170C352.559 166.984 353.737 164.089 355.124 161.316C356.511 158.508 358.019 155.856 359.648 153.36C361.277 150.829 362.976 148.437 364.744 146.184C366.512 143.896 368.28 141.764 370.048 139.788H349.04L350.912 131.936H375.612V132.456C374.087 134.883 372.579 137.5 371.088 140.308C369.597 143.081 368.176 146.045 366.824 149.2C365.507 152.32 364.311 155.613 363.236 159.08C362.161 162.547 361.312 166.187 360.688 170H351.588ZM384.831 169.896C385.247 169.203 385.594 168.579 385.871 168.024C386.148 167.435 386.356 166.845 386.495 166.256C386.668 165.667 386.772 165.025 386.807 164.332C386.876 163.639 386.911 162.824 386.911 161.888V160.12H371.103V159.548L387.951 131.936H398.923L372.923 158.716H386.911V148.264H396.479V158.716H401.471L401.055 160.12H396.479V161.888C396.479 162.824 396.496 163.639 396.531 164.332C396.6 165.025 396.704 165.667 396.843 166.256C397.016 166.845 397.242 167.435 397.519 168.024C397.796 168.579 398.143 169.203 398.559 169.896V170H384.831V169.896ZM419.195 170.78C417.149 170.78 415.26 170.555 413.527 170.104C411.793 169.653 410.285 168.995 409.003 168.128C407.72 167.261 406.715 166.221 405.987 165.008C405.293 163.795 404.947 162.425 404.947 160.9C404.947 158.924 405.605 157.156 406.923 155.596C408.24 154.036 410.372 152.84 413.319 152.008C412.001 151.245 410.909 150.465 410.043 149.668C409.211 148.836 408.535 147.987 408.015 147.12C407.529 146.253 407.183 145.404 406.975 144.572C406.767 143.705 406.663 142.856 406.663 142.024C406.663 140.395 406.975 138.921 407.599 137.604C408.223 136.252 409.107 135.108 410.251 134.172C411.395 133.201 412.764 132.456 414.359 131.936C415.988 131.416 417.791 131.156 419.767 131.156C421.604 131.156 423.303 131.381 424.863 131.832C426.423 132.283 427.757 132.907 428.867 133.704C430.011 134.467 430.895 135.385 431.518 136.46C432.177 137.535 432.507 138.713 432.507 139.996C432.507 140.689 432.385 141.417 432.143 142.18C431.9 142.908 431.484 143.619 430.895 144.312C430.34 145.005 429.577 145.647 428.607 146.236C427.671 146.825 426.475 147.328 425.019 147.744C426.752 148.645 428.208 149.581 429.387 150.552C430.565 151.523 431.519 152.511 432.247 153.516C432.975 154.521 433.495 155.544 433.807 156.584C434.119 157.589 434.275 158.612 434.275 159.652C434.275 161.385 433.893 162.945 433.131 164.332C432.368 165.684 431.311 166.845 429.959 167.816C428.607 168.752 427.012 169.48 425.175 170C423.337 170.52 421.344 170.78 419.195 170.78ZM422.991 146.756C423.095 146.791 423.181 146.825 423.251 146.86L423.667 147.068C423.771 147.103 423.857 147.137 423.927 147.172C424.863 146.167 425.487 145.057 425.799 143.844C426.145 142.596 426.319 141.365 426.319 140.152C426.319 137.691 425.764 135.784 424.655 134.432C423.545 133.045 421.985 132.352 419.975 132.352C418.033 132.352 416.543 132.907 415.503 134.016C414.497 135.125 413.995 136.477 413.995 138.072C413.995 138.973 414.168 139.805 414.515 140.568C414.861 141.296 415.399 142.007 416.127 142.7C416.855 143.393 417.773 144.069 418.883 144.728C420.027 145.387 421.396 146.063 422.991 146.756ZM419.195 169.584C421.413 169.584 423.199 168.977 424.551 167.764C425.937 166.516 426.631 164.904 426.631 162.928C426.631 161.784 426.388 160.779 425.903 159.912C425.417 159.045 424.689 158.248 423.719 157.52C422.783 156.757 421.621 156.029 420.235 155.336C418.848 154.643 417.253 153.897 415.451 153.1L414.359 152.58C413.319 153.585 412.539 154.781 412.019 156.168C411.533 157.52 411.291 158.976 411.291 160.536C411.291 161.888 411.464 163.119 411.811 164.228C412.157 165.337 412.66 166.291 413.319 167.088C413.977 167.885 414.792 168.509 415.763 168.96C416.768 169.376 417.912 169.584 419.195 169.584Z" fill="#1F3864"/>
<path d="M353.996 206V194.552H349.568V193.4H359.756V194.552H355.328V206H353.996ZM364.802 206V201.32L365.108 202.148L359.762 193.4H361.184L365.882 201.086H365.126L369.824 193.4H371.156L365.81 202.148L366.116 201.32V206H364.802ZM365.684 192.5L365.234 191.942C365.594 191.774 365.858 191.588 366.026 191.384C366.206 191.18 366.296 190.94 366.296 190.664C366.296 190.412 366.206 190.202 366.026 190.034C365.846 189.866 365.606 189.782 365.306 189.782C364.934 189.782 364.574 189.896 364.226 190.124L363.92 189.494C364.124 189.338 364.358 189.224 364.622 189.152C364.898 189.068 365.162 189.026 365.414 189.026C365.918 189.026 366.326 189.17 366.638 189.458C366.962 189.734 367.124 190.106 367.124 190.574C367.124 190.994 367.004 191.366 366.764 191.69C366.536 192.002 366.176 192.272 365.684 192.5ZM378.023 206V193.4H383.153C384.497 193.4 385.673 193.67 386.681 194.21C387.701 194.738 388.493 195.476 389.057 196.424C389.621 197.372 389.903 198.464 389.903 199.7C389.903 200.936 389.621 202.028 389.057 202.976C388.493 203.924 387.701 204.668 386.681 205.208C385.673 205.736 384.497 206 383.153 206H378.023ZM379.355 204.848H383.081C384.197 204.848 385.163 204.632 385.979 204.2C386.807 203.756 387.449 203.15 387.905 202.382C388.361 201.602 388.589 200.708 388.589 199.7C388.589 198.68 388.361 197.786 387.905 197.018C387.449 196.25 386.807 195.65 385.979 195.218C385.163 194.774 384.197 194.552 383.081 194.552H379.355V204.848ZM376.115 200.114V199.052H383.099V200.114H376.115ZM398.4 206.108C397.452 206.108 396.57 205.952 395.754 205.64C394.95 205.316 394.248 204.866 393.648 204.29C393.06 203.702 392.598 203.024 392.262 202.256C391.938 201.476 391.776 200.624 391.776 199.7C391.776 198.776 391.938 197.93 392.262 197.162C392.598 196.382 393.06 195.704 393.648 195.128C394.248 194.54 394.95 194.09 395.754 193.778C396.558 193.454 397.44 193.292 398.4 193.292C399.348 193.292 400.224 193.454 401.028 193.778C401.832 194.09 402.528 194.534 403.116 195.11C403.716 195.686 404.178 196.364 404.502 197.144C404.838 197.924 405.006 198.776 405.006 199.7C405.006 200.624 404.838 201.476 404.502 202.256C404.178 203.036 403.716 203.714 403.116 204.29C402.528 204.866 401.832 205.316 401.028 205.64C400.224 205.952 399.348 206.108 398.4 206.108ZM398.4 204.92C399.156 204.92 399.852 204.794 400.488 204.542C401.136 204.278 401.694 203.912 402.162 203.444C402.642 202.964 403.014 202.412 403.278 201.788C403.542 201.152 403.674 200.456 403.674 199.7C403.674 198.944 403.542 198.254 403.278 197.63C403.014 196.994 402.642 196.442 402.162 195.974C401.694 195.494 401.136 195.128 400.488 194.876C399.852 194.612 399.156 194.48 398.4 194.48C397.644 194.48 396.942 194.612 396.294 194.876C395.646 195.128 395.082 195.494 394.602 195.974C394.134 196.442 393.762 196.994 393.486 197.63C393.222 198.254 393.09 198.944 393.09 199.7C393.09 200.444 393.222 201.134 393.486 201.77C393.762 202.406 394.134 202.964 394.602 203.444C395.082 203.912 395.646 204.278 396.294 204.542C396.942 204.794 397.644 204.92 398.4 204.92ZM395.43 192.374L397.77 190.682H399.03L401.37 192.374H400.146L397.896 191.006H398.904L396.654 192.374H395.43ZM401.118 190.88L398.508 188.936H400.074L402.234 190.88H401.118ZM407.991 206V193.4H409.089L417.783 204.344H417.207V193.4H418.521V206H417.423L408.747 195.056H409.323V206H407.991ZM428.16 206.108C427.2 206.108 426.312 205.952 425.496 205.64C424.692 205.316 423.99 204.866 423.39 204.29C422.802 203.714 422.34 203.036 422.004 202.256C421.68 201.476 421.518 200.624 421.518 199.7C421.518 198.776 421.68 197.924 422.004 197.144C422.34 196.364 422.808 195.686 423.408 195.11C424.008 194.534 424.71 194.09 425.514 193.778C426.33 193.454 427.218 193.292 428.178 193.292C429.138 193.292 430.014 193.442 430.806 193.742C431.61 194.042 432.294 194.498 432.858 195.11L432.03 195.956C431.502 195.428 430.92 195.05 430.284 194.822C429.648 194.594 428.964 194.48 428.232 194.48C427.452 194.48 426.732 194.612 426.072 194.876C425.424 195.128 424.854 195.494 424.362 195.974C423.882 196.442 423.504 196.994 423.228 197.63C422.964 198.254 422.832 198.944 422.832 199.7C422.832 200.444 422.964 201.134 423.228 201.77C423.504 202.406 423.882 202.964 424.362 203.444C424.854 203.912 425.424 204.278 426.072 204.542C426.732 204.794 427.446 204.92 428.214 204.92C428.934 204.92 429.612 204.812 430.248 204.596C430.896 204.38 431.49 204.014 432.03 203.498L432.786 204.506C432.186 205.034 431.484 205.436 430.68 205.712C429.876 205.976 429.036 206.108 428.16 206.108ZM431.508 204.344V199.7H432.786V204.506L431.508 204.344Z" fill="#1F3864"/>
<rect x="504.5" y="0.5" width="279" height="279" rx="139.5" stroke="#1F3864"/>
<path d="M624.078 85V74.824H620.142V73.8H629.198V74.824H625.262V85H624.078ZM635.829 85.096C634.987 85.096 634.203 84.9573 633.477 84.68C632.763 84.392 632.139 83.992 631.605 83.48C631.083 82.9573 630.672 82.3547 630.373 81.672C630.085 80.9787 629.941 80.2213 629.941 79.4C629.941 78.5787 630.085 77.8267 630.373 77.144C630.672 76.4507 631.083 75.848 631.605 75.336C632.139 74.8133 632.763 74.4133 633.477 74.136C634.192 73.848 634.976 73.704 635.829 73.704C636.672 73.704 637.451 73.848 638.165 74.136C638.88 74.4133 639.499 74.808 640.021 75.32C640.555 75.832 640.965 76.4347 641.253 77.128C641.552 77.8213 641.701 78.5787 641.701 79.4C641.701 80.2213 641.552 80.9787 641.253 81.672C640.965 82.3653 640.555 82.968 640.021 83.48C639.499 83.992 638.88 84.392 638.165 84.68C637.451 84.9573 636.672 85.096 635.829 85.096ZM635.829 84.04C636.501 84.04 637.12 83.928 637.685 83.704C638.261 83.4693 638.757 83.144 639.173 82.728C639.6 82.3013 639.931 81.8107 640.165 81.256C640.4 80.6907 640.517 80.072 640.517 79.4C640.517 78.728 640.4 78.1147 640.165 77.56C639.931 76.9947 639.6 76.504 639.173 76.088C638.757 75.6613 638.261 75.336 637.685 75.112C637.12 74.8773 636.501 74.76 635.829 74.76C635.157 74.76 634.533 74.8773 633.957 75.112C633.381 75.336 632.88 75.6613 632.453 76.088C632.037 76.504 631.707 76.9947 631.461 77.56C631.227 78.1147 631.109 78.728 631.109 79.4C631.109 80.0613 631.227 80.6747 631.461 81.24C631.707 81.8053 632.037 82.3013 632.453 82.728C632.88 83.144 633.381 83.4693 633.957 83.704C634.533 83.928 635.157 84.04 635.829 84.04ZM633.189 72.888L635.269 71.384H636.389L638.469 72.888H637.381L635.381 71.672H636.277L634.277 72.888H633.189ZM637.925 71.832L637.605 71.432C637.819 71.3253 637.984 71.2027 638.101 71.064C638.219 70.9253 638.277 70.7813 638.277 70.632C638.277 70.472 638.219 70.344 638.101 70.248C637.984 70.152 637.829 70.104 637.637 70.104C637.403 70.104 637.173 70.168 636.949 70.296L636.709 69.832C636.859 69.7253 637.019 69.6507 637.189 69.608C637.371 69.5547 637.552 69.528 637.733 69.528C638.096 69.528 638.379 69.6293 638.581 69.832C638.784 70.024 638.885 70.2693 638.885 70.568C638.885 70.8453 638.8 71.096 638.629 71.32C638.469 71.5333 638.235 71.704 637.925 71.832ZM644.355 85V73.8H645.331L653.059 83.528H652.547V73.8H653.715V85H652.739L645.027 75.272H645.539V85H644.355ZM662.283 85.096C661.43 85.096 660.64 84.9573 659.915 84.68C659.2 84.392 658.576 83.992 658.043 83.48C657.52 82.968 657.11 82.3653 656.811 81.672C656.523 80.9787 656.379 80.2213 656.379 79.4C656.379 78.5787 656.523 77.8213 656.811 77.128C657.11 76.4347 657.526 75.832 658.059 75.32C658.592 74.808 659.216 74.4133 659.931 74.136C660.656 73.848 661.446 73.704 662.299 73.704C663.152 73.704 663.931 73.8373 664.635 74.104C665.35 74.3707 665.958 74.776 666.459 75.32L665.723 76.072C665.254 75.6027 664.736 75.2667 664.171 75.064C663.606 74.8613 662.998 74.76 662.347 74.76C661.654 74.76 661.014 74.8773 660.427 75.112C659.851 75.336 659.344 75.6613 658.907 76.088C658.48 76.504 658.144 76.9947 657.899 77.56C657.664 78.1147 657.547 78.728 657.547 79.4C657.547 80.0613 657.664 80.6747 657.899 81.24C658.144 81.8053 658.48 82.3013 658.907 82.728C659.344 83.144 659.851 83.4693 660.427 83.704C661.014 83.928 661.648 84.04 662.331 84.04C662.971 84.04 663.574 83.944 664.139 83.752C664.715 83.56 665.243 83.2347 665.723 82.776L666.395 83.672C665.862 84.1413 665.238 84.4987 664.523 84.744C663.808 84.9787 663.062 85.096 662.283 85.096ZM665.259 83.528V79.4H666.395V83.672L665.259 83.528ZM616.281 109V98.824H612.345V97.8H621.401V98.824H617.465V109H616.281ZM620.938 109L626.058 97.8H627.226L632.346 109H631.098L626.394 98.488H626.874L622.17 109H620.938ZM622.954 106.008L623.306 105.048H629.818L630.17 106.008H622.954ZM626.57 96.888L623.978 94.904H625.498L627.69 96.888H626.57ZM634.199 109V97.8H635.383V109H634.199ZM646.303 109.096C645.471 109.096 644.671 108.963 643.903 108.696C643.145 108.419 642.559 108.067 642.143 107.64L642.607 106.728C643.001 107.112 643.529 107.437 644.191 107.704C644.863 107.96 645.567 108.088 646.303 108.088C647.007 108.088 647.577 108.003 648.015 107.832C648.463 107.651 648.788 107.411 648.991 107.112C649.204 106.813 649.311 106.483 649.311 106.12C649.311 105.683 649.183 105.331 648.927 105.064C648.681 104.797 648.356 104.589 647.951 104.44C647.545 104.28 647.097 104.141 646.607 104.024C646.116 103.907 645.625 103.784 645.135 103.656C644.644 103.517 644.191 103.336 643.775 103.112C643.369 102.888 643.039 102.595 642.783 102.232C642.537 101.859 642.415 101.373 642.415 100.776C642.415 100.221 642.559 99.7147 642.847 99.256C643.145 98.7867 643.599 98.4133 644.207 98.136C644.815 97.848 645.593 97.704 646.543 97.704C647.172 97.704 647.796 97.7947 648.415 97.976C649.033 98.1467 649.567 98.3867 650.015 98.696L649.615 99.64C649.135 99.32 648.623 99.0853 648.079 98.936C647.545 98.7867 647.028 98.712 646.527 98.712C645.855 98.712 645.3 98.8027 644.863 98.984C644.425 99.1653 644.1 99.4107 643.887 99.72C643.684 100.019 643.583 100.36 643.583 100.744C643.583 101.181 643.705 101.533 643.951 101.8C644.207 102.067 644.537 102.275 644.943 102.424C645.359 102.573 645.812 102.707 646.303 102.824C646.793 102.941 647.279 103.069 647.759 103.208C648.249 103.347 648.697 103.528 649.103 103.752C649.519 103.965 649.849 104.253 650.095 104.616C650.351 104.979 650.479 105.453 650.479 106.04C650.479 106.584 650.329 107.091 650.031 107.56C649.732 108.019 649.273 108.392 648.655 108.68C648.047 108.957 647.263 109.096 646.303 109.096ZM651.266 109L656.386 97.8H657.554L662.674 109H661.426L656.722 98.488H657.202L652.498 109H651.266ZM653.282 106.008L653.634 105.048H660.146L660.498 106.008H653.282ZM657.186 97L656.786 96.504C657.106 96.3547 657.341 96.1893 657.49 96.008C657.65 95.8267 657.73 95.6133 657.73 95.368C657.73 95.144 657.65 94.9573 657.49 94.808C657.33 94.6587 657.117 94.584 656.85 94.584C656.52 94.584 656.2 94.6853 655.89 94.888L655.618 94.328C655.8 94.1893 656.008 94.088 656.242 94.024C656.488 93.9493 656.722 93.912 656.946 93.912C657.394 93.912 657.757 94.04 658.034 94.296C658.322 94.5413 658.466 94.872 658.466 95.288C658.466 95.6613 658.36 95.992 658.146 96.28C657.944 96.5573 657.624 96.7973 657.186 97ZM664.527 109V97.8H665.503L673.231 107.528H672.719V97.8H673.887V109H672.911L665.199 99.272H665.711V109H664.527Z" fill="#1F3864"/>
<path d="M579.383 170V169.376C582.607 166.256 585.311 163.431 587.495 160.9C589.679 158.335 591.447 155.96 592.799 153.776C594.151 151.557 595.105 149.46 595.659 147.484C596.249 145.508 596.543 143.549 596.543 141.608C596.543 138.696 596.11 136.425 595.243 134.796C594.377 133.132 593.146 132.3 591.551 132.3C590.685 132.3 589.818 132.56 588.951 133.08C588.085 133.6 587.235 134.328 586.403 135.264C585.571 136.2 584.757 137.309 583.959 138.592C583.162 139.875 582.399 141.279 581.671 142.804L581.151 142.7L582.503 132.82C583.439 132.439 584.653 132.075 586.143 131.728C587.669 131.347 589.575 131.156 591.863 131.156C594.29 131.156 596.387 131.416 598.155 131.936C599.923 132.456 601.379 133.184 602.523 134.12C603.667 135.021 604.517 136.096 605.071 137.344C605.626 138.592 605.903 139.944 605.903 141.4C605.903 143.168 605.487 144.901 604.655 146.6C603.823 148.299 602.593 150.015 600.963 151.748C599.369 153.481 597.375 155.267 594.983 157.104C592.591 158.941 589.835 160.883 586.715 162.928H596.335C598.797 162.928 600.894 162.425 602.627 161.42C604.361 160.38 605.747 159.184 606.787 157.832L607.203 157.936L603.563 170H579.383ZM615.08 170.26C613.867 170.26 612.827 169.844 611.96 169.012C611.128 168.145 610.712 167.105 610.712 165.892C610.712 164.679 611.128 163.656 611.96 162.824C612.827 161.957 613.867 161.524 615.08 161.524C616.293 161.524 617.316 161.957 618.148 162.824C619.015 163.656 619.448 164.679 619.448 165.892C619.448 167.105 619.015 168.145 618.148 169.012C617.316 169.844 616.293 170.26 615.08 170.26ZM633.73 170.78C631.65 170.78 629.812 170.537 628.218 170.052C626.658 169.601 625.41 169.081 624.474 168.492L623.226 159.132L623.746 159.028C624.578 160.449 625.392 161.801 626.19 163.084C626.987 164.332 627.784 165.459 628.582 166.464C629.414 167.435 630.263 168.215 631.13 168.804C631.996 169.359 632.915 169.636 633.886 169.636C635.792 169.636 637.318 168.665 638.462 166.724C639.606 164.748 640.178 161.992 640.178 158.456C640.178 154.92 639.519 152.251 638.202 150.448C636.919 148.645 634.874 147.744 632.066 147.744C631.095 147.744 630.107 147.883 629.102 148.16C628.131 148.403 627.091 148.836 625.982 149.46L625.566 149.252L628.478 131.936H648.706L647.354 139.008H628.582L627.022 148.056C628.096 147.432 629.258 146.981 630.506 146.704C631.754 146.392 633.071 146.236 634.458 146.236C636.226 146.236 637.994 146.479 639.762 146.964C641.564 147.415 643.159 148.125 644.546 149.096C645.967 150.067 647.111 151.315 647.978 152.84C648.879 154.365 649.33 156.168 649.33 158.248C649.33 160.432 648.862 162.321 647.926 163.916C647.024 165.476 645.828 166.776 644.338 167.816C642.847 168.821 641.166 169.567 639.294 170.052C637.456 170.537 635.602 170.78 633.73 170.78ZM649.969 170V169.376C653.193 166.256 655.897 163.431 658.081 160.9C660.265 158.335 662.033 155.96 663.385 153.776C664.737 151.557 665.691 149.46 666.245 147.484C666.835 145.508 667.129 143.549 667.129 141.608C667.129 138.696 666.696 136.425 665.829 134.796C664.963 133.132 663.732 132.3 662.137 132.3C661.271 132.3 660.404 132.56 659.537 133.08C658.671 133.6 657.821 134.328 656.989 135.264C656.157 136.2 655.343 137.309 654.545 138.592C653.748 139.875 652.985 141.279 652.257 142.804L651.737 142.7L653.089 132.82C654.025 132.439 655.239 132.075 656.729 131.728C658.255 131.347 660.161 131.156 662.449 131.156C664.876 131.156 666.973 131.416 668.741 131.936C670.509 132.456 671.965 133.184 673.109 134.12C674.253 135.021 675.103 136.096 675.657 137.344C676.212 138.592 676.489 139.944 676.489 141.4C676.489 143.168 676.073 144.901 675.241 146.6C674.409 148.299 673.179 150.015 671.549 151.748C669.955 153.481 667.961 155.267 665.569 157.104C663.177 158.941 660.421 160.883 657.301 162.928H666.921C669.383 162.928 671.48 162.425 673.213 161.42C674.947 160.38 676.333 159.184 677.373 157.832L677.789 157.936L674.149 170H649.969ZM691.86 170.78C689.711 170.78 687.683 170.555 685.776 170.104C683.904 169.688 682.413 169.151 681.304 168.492L680.056 159.132L680.576 159.028C681.547 160.623 682.448 162.079 683.28 163.396C684.112 164.679 684.944 165.788 685.776 166.724C686.608 167.66 687.475 168.388 688.376 168.908C689.277 169.393 690.265 169.636 691.34 169.636C692.449 169.636 693.42 169.376 694.252 168.856C695.119 168.301 695.847 167.556 696.436 166.62C697.025 165.649 697.476 164.505 697.788 163.188C698.1 161.836 698.256 160.345 698.256 158.716C698.256 155.145 697.597 152.528 696.28 150.864C694.997 149.2 693.212 148.368 690.924 148.368C689.607 148.368 688.411 148.576 687.336 148.992C686.296 149.408 685.325 149.911 684.424 150.5L683.904 149.824L697.112 139.008H681.564L684.58 131.936H707.148V132.456L688.688 147.484C689.347 147.276 690.075 147.12 690.872 147.016C691.669 146.877 692.519 146.808 693.42 146.808C695.119 146.808 696.8 147.033 698.464 147.484C700.163 147.935 701.688 148.645 703.04 149.616C704.392 150.587 705.484 151.835 706.316 153.36C707.148 154.851 707.564 156.636 707.564 158.716C707.564 160.588 707.183 162.269 706.42 163.76C705.657 165.251 704.583 166.516 703.196 167.556C701.809 168.596 700.145 169.393 698.204 169.948C696.297 170.503 694.183 170.78 691.86 170.78Z" fill="#1F3864"/>
<path d="M605.996 206V194.552H601.568V193.4H611.756V194.552H607.328V206H605.996ZM616.802 206V201.32L617.108 202.148L611.762 193.4H613.184L617.882 201.086H617.126L621.824 193.4H623.156L617.81 202.148L618.116 201.32V206H616.802ZM617.684 192.5L617.234 191.942C617.594 191.774 617.858 191.588 618.026 191.384C618.206 191.18 618.296 190.94 618.296 190.664C618.296 190.412 618.206 190.202 618.026 190.034C617.846 189.866 617.606 189.782 617.306 189.782C616.934 189.782 616.574 189.896 616.226 190.124L615.92 189.494C616.124 189.338 616.358 189.224 616.622 189.152C616.898 189.068 617.162 189.026 617.414 189.026C617.918 189.026 618.326 189.17 618.638 189.458C618.962 189.734 619.124 190.106 619.124 190.574C619.124 190.994 619.004 191.366 618.764 191.69C618.536 192.002 618.176 192.272 617.684 192.5ZM630.023 206V193.4H635.153C636.497 193.4 637.673 193.67 638.681 194.21C639.701 194.738 640.493 195.476 641.057 196.424C641.621 197.372 641.903 198.464 641.903 199.7C641.903 200.936 641.621 202.028 641.057 202.976C640.493 203.924 639.701 204.668 638.681 205.208C637.673 205.736 636.497 206 635.153 206H630.023ZM631.355 204.848H635.081C636.197 204.848 637.163 204.632 637.979 204.2C638.807 203.756 639.449 203.15 639.905 202.382C640.361 201.602 640.589 200.708 640.589 199.7C640.589 198.68 640.361 197.786 639.905 197.018C639.449 196.25 638.807 195.65 637.979 195.218C637.163 194.774 636.197 194.552 635.081 194.552H631.355V204.848ZM628.115 200.114V199.052H635.099V200.114H628.115ZM650.4 206.108C649.452 206.108 648.57 205.952 647.754 205.64C646.95 205.316 646.248 204.866 645.648 204.29C645.06 203.702 644.598 203.024 644.262 202.256C643.938 201.476 643.776 200.624 643.776 199.7C643.776 198.776 643.938 197.93 644.262 197.162C644.598 196.382 645.06 195.704 645.648 195.128C646.248 194.54 646.95 194.09 647.754 193.778C648.558 193.454 649.44 193.292 650.4 193.292C651.348 193.292 652.224 193.454 653.028 193.778C653.832 194.09 654.528 194.534 655.116 195.11C655.716 195.686 656.178 196.364 656.502 197.144C656.838 197.924 657.006 198.776 657.006 199.7C657.006 200.624 656.838 201.476 656.502 202.256C656.178 203.036 655.716 203.714 655.116 204.29C654.528 204.866 653.832 205.316 653.028 205.64C652.224 205.952 651.348 206.108 650.4 206.108ZM650.4 204.92C651.156 204.92 651.852 204.794 652.488 204.542C653.136 204.278 653.694 203.912 654.162 203.444C654.642 202.964 655.014 202.412 655.278 201.788C655.542 201.152 655.674 200.456 655.674 199.7C655.674 198.944 655.542 198.254 655.278 197.63C655.014 196.994 654.642 196.442 654.162 195.974C653.694 195.494 653.136 195.128 652.488 194.876C651.852 194.612 651.156 194.48 650.4 194.48C649.644 194.48 648.942 194.612 648.294 194.876C647.646 195.128 647.082 195.494 646.602 195.974C646.134 196.442 645.762 196.994 645.486 197.63C645.222 198.254 645.09 198.944 645.09 199.7C645.09 200.444 645.222 201.134 645.486 201.77C645.762 202.406 646.134 202.964 646.602 203.444C647.082 203.912 647.646 204.278 648.294 204.542C648.942 204.794 649.644 204.92 650.4 204.92ZM647.43 192.374L649.77 190.682H651.03L653.37 192.374H652.146L649.896 191.006H650.904L648.654 192.374H647.43ZM653.118 190.88L650.508 188.936H652.074L654.234 190.88H653.118ZM659.991 206V193.4H661.089L669.783 204.344H669.207V193.4H670.521V206H669.423L660.747 195.056H661.323V206H659.991ZM680.16 206.108C679.2 206.108 678.312 205.952 677.496 205.64C676.692 205.316 675.99 204.866 675.39 204.29C674.802 203.714 674.34 203.036 674.004 202.256C673.68 201.476 673.518 200.624 673.518 199.7C673.518 198.776 673.68 197.924 674.004 197.144C674.34 196.364 674.808 195.686 675.408 195.11C676.008 194.534 676.71 194.09 677.514 193.778C678.33 193.454 679.218 193.292 680.178 193.292C681.138 193.292 682.014 193.442 682.806 193.742C683.61 194.042 684.294 194.498 684.858 195.11L684.03 195.956C683.502 195.428 682.92 195.05 682.284 194.822C681.648 194.594 680.964 194.48 680.232 194.48C679.452 194.48 678.732 194.612 678.072 194.876C677.424 195.128 676.854 195.494 676.362 195.974C675.882 196.442 675.504 196.994 675.228 197.63C674.964 198.254 674.832 198.944 674.832 199.7C674.832 200.444 674.964 201.134 675.228 201.77C675.504 202.406 675.882 202.964 676.362 203.444C676.854 203.912 677.424 204.278 678.072 204.542C678.732 204.794 679.446 204.92 680.214 204.92C680.934 204.92 681.612 204.812 682.248 204.596C682.896 204.38 683.49 204.014 684.03 203.498L684.786 204.506C684.186 205.034 683.484 205.436 682.68 205.712C681.876 205.976 681.036 206.108 680.16 206.108ZM683.508 204.344V199.7H684.786V204.506L683.508 204.344Z" fill="#1F3864"/>
<rect x="756.5" y="0.5" width="279" height="279" rx="139.5" stroke="#1F3864"/>
<path d="M850.527 85V73.8H851.711V83.976H857.983V85H850.527ZM864.626 85.096C863.784 85.096 863 84.9573 862.274 84.68C861.56 84.392 860.936 83.992 860.402 83.48C859.88 82.9573 859.469 82.3547 859.17 81.672C858.882 80.9787 858.738 80.2213 858.738 79.4C858.738 78.5787 858.882 77.8213 859.17 77.128C859.469 76.4347 859.885 75.832 860.418 75.32C860.952 74.808 861.576 74.4133 862.29 74.136C863.016 73.848 863.805 73.704 864.658 73.704C865.32 73.704 865.89 73.7413 866.37 73.816C866.861 73.8907 867.346 73.928 867.826 73.928C868.349 73.928 868.744 73.8267 869.01 73.624C869.277 73.4213 869.41 73.1173 869.41 72.712C869.41 72.5093 869.378 72.328 869.314 72.168C869.25 71.9973 869.176 71.8373 869.09 71.688L869.842 71.4C869.97 71.5813 870.072 71.7893 870.146 72.024C870.221 72.2587 870.258 72.4987 870.258 72.744C870.258 73.3733 870.045 73.8587 869.618 74.2C869.192 74.5307 868.578 74.696 867.778 74.696C867.512 74.696 867.213 74.68 866.882 74.648C866.562 74.616 866.258 74.5787 865.97 74.536L867.378 74.36C868.008 74.648 868.557 75.0427 869.026 75.544C869.496 76.0453 869.858 76.6267 870.114 77.288C870.37 77.9387 870.498 78.6427 870.498 79.4C870.498 80.2213 870.349 80.9787 870.05 81.672C869.762 82.3653 869.352 82.968 868.818 83.48C868.296 83.992 867.677 84.392 866.962 84.68C866.248 84.9573 865.469 85.096 864.626 85.096ZM864.626 84.04C865.298 84.04 865.917 83.9227 866.482 83.688C867.058 83.4533 867.554 83.128 867.97 82.712C868.397 82.296 868.728 81.8053 868.962 81.24C869.197 80.6747 869.314 80.0613 869.314 79.4C869.314 78.7387 869.197 78.1253 868.962 77.56C868.728 76.9947 868.397 76.504 867.97 76.088C867.554 75.672 867.058 75.3467 866.482 75.112C865.917 74.8773 865.298 74.76 864.626 74.76C863.954 74.76 863.33 74.8773 862.754 75.112C862.178 75.336 861.677 75.6613 861.25 76.088C860.834 76.504 860.504 76.9947 860.258 77.56C860.024 78.1147 859.906 78.728 859.906 79.4C859.906 80.0613 860.024 80.6747 860.258 81.24C860.504 81.7947 860.834 82.2853 861.25 82.712C861.677 83.1387 862.178 83.4693 862.754 83.704C863.33 83.928 863.954 84.04 864.626 84.04ZM864.626 88.04C864.445 88.04 864.285 87.976 864.146 87.848C864.008 87.72 863.938 87.5547 863.938 87.352C863.938 87.1493 864.008 86.984 864.146 86.856C864.285 86.728 864.445 86.664 864.626 86.664C864.818 86.664 864.978 86.728 865.106 86.856C865.245 86.984 865.314 87.1493 865.314 87.352C865.314 87.5547 865.245 87.72 865.106 87.848C864.978 87.976 864.818 88.04 864.626 88.04ZM873.152 85V73.8H874.336V85H873.152ZM882.168 85V73.8H883.144L890.872 83.528H890.36V73.8H891.528V85H890.552L882.84 75.272H883.352V85H882.168ZM903.375 73.8H904.543V85H903.375V73.8ZM896.367 85H895.183V73.8H896.367V85ZM903.487 79.832H896.239V78.792H903.487V79.832ZM912.711 85.096C911.282 85.096 910.156 84.6853 909.335 83.864C908.514 83.0427 908.103 81.8267 908.103 80.216V73.8H909.287V80.168C909.287 81.4907 909.586 82.4667 910.183 83.096C910.78 83.7253 911.623 84.04 912.711 84.04C913.81 84.04 914.658 83.7253 915.255 83.096C915.852 82.4667 916.151 81.4907 916.151 80.168V73.8H917.303V80.216C917.303 81.8267 916.892 83.0427 916.071 83.864C915.26 84.6853 914.14 85.096 912.711 85.096ZM918.845 85L923.965 73.8H925.133L930.253 85H929.005L924.301 74.488H924.781L920.077 85H918.845ZM920.861 82.008L921.213 81.048H927.725L928.077 82.008H920.861ZM924.557 88.04C924.375 88.04 924.215 87.976 924.077 87.848C923.938 87.72 923.869 87.5547 923.869 87.352C923.869 87.1493 923.938 86.984 924.077 86.856C924.215 86.728 924.375 86.664 924.557 86.664C924.749 86.664 924.909 86.728 925.037 86.856C925.175 86.984 925.245 87.1493 925.245 87.352C925.245 87.5547 925.175 87.72 925.037 87.848C924.909 87.976 924.749 88.04 924.557 88.04ZM921.917 72.888L923.981 70.904H925.133L927.197 72.888H926.141L924.109 71.192H925.005L922.973 72.888H921.917ZM932.105 85V73.8H933.081L940.809 83.528H940.297V73.8H941.465V85H940.489L932.777 75.272H933.289V85H932.105ZM845.906 109V98.824H841.97V97.8H851.026V98.824H847.09V109H845.906ZM852.918 109V97.8H857.11C858.059 97.8 858.875 97.9547 859.558 98.264C860.24 98.5627 860.763 99 861.126 99.576C861.499 100.141 861.686 100.829 861.686 101.64C861.686 102.429 861.499 103.112 861.126 103.688C860.763 104.253 860.24 104.691 859.558 105C858.875 105.299 858.059 105.448 857.11 105.448H853.574L854.102 104.904V109H852.918ZM860.566 109L857.686 104.936H858.966L861.862 109H860.566ZM854.102 105L853.574 104.44H857.078C858.198 104.44 859.046 104.195 859.622 103.704C860.208 103.213 860.502 102.525 860.502 101.64C860.502 100.744 860.208 100.051 859.622 99.56C859.046 99.0693 858.198 98.824 857.078 98.824H853.574L854.102 98.264V105ZM868.992 109.096C867.563 109.096 866.438 108.685 865.616 107.864C864.795 107.043 864.384 105.827 864.384 104.216V97.8H865.568V104.168C865.568 105.491 865.867 106.467 866.464 107.096C867.062 107.725 867.904 108.04 868.992 108.04C870.091 108.04 870.939 107.725 871.536 107.096C872.134 106.467 872.432 105.491 872.432 104.168V97.8H873.584V104.216C873.584 105.827 873.174 107.043 872.352 107.864C871.542 108.685 870.422 109.096 868.992 109.096ZM873.04 98.664V97.8H873.28C873.654 97.8 873.92 97.6933 874.08 97.48C874.251 97.2667 874.336 97.0107 874.336 96.712C874.336 96.5093 874.304 96.3227 874.24 96.152C874.187 95.9813 874.112 95.8267 874.016 95.688L874.768 95.4C874.896 95.5813 874.998 95.7893 875.072 96.024C875.147 96.248 875.184 96.488 875.184 96.744C875.184 97.3093 875.024 97.7733 874.704 98.136C874.384 98.488 873.91 98.664 873.28 98.664H873.04ZM882.126 109.096C881.284 109.096 880.5 108.957 879.774 108.68C879.06 108.392 878.436 107.992 877.902 107.48C877.38 106.957 876.969 106.355 876.67 105.672C876.382 104.979 876.238 104.221 876.238 103.4C876.238 102.579 876.382 101.821 876.67 101.128C876.969 100.435 877.385 99.832 877.918 99.32C878.452 98.808 879.076 98.4133 879.79 98.136C880.516 97.848 881.305 97.704 882.158 97.704C882.82 97.704 883.39 97.7413 883.87 97.816C884.361 97.8907 884.846 97.928 885.326 97.928C885.849 97.928 886.244 97.8267 886.51 97.624C886.777 97.4213 886.91 97.1173 886.91 96.712C886.91 96.5093 886.878 96.328 886.814 96.168C886.75 95.9973 886.676 95.8373 886.59 95.688L887.342 95.4C887.47 95.5813 887.572 95.7893 887.646 96.024C887.721 96.2587 887.758 96.4987 887.758 96.744C887.758 97.3733 887.545 97.8587 887.118 98.2C886.692 98.5307 886.078 98.696 885.278 98.696C885.012 98.696 884.713 98.68 884.382 98.648C884.062 98.616 883.758 98.5787 883.47 98.536L884.878 98.36C885.508 98.648 886.057 99.0427 886.526 99.544C886.996 100.045 887.358 100.627 887.614 101.288C887.87 101.939 887.998 102.643 887.998 103.4C887.998 104.221 887.849 104.979 887.55 105.672C887.262 106.365 886.852 106.968 886.318 107.48C885.796 107.992 885.177 108.392 884.462 108.68C883.748 108.957 882.969 109.096 882.126 109.096ZM882.126 108.04C882.798 108.04 883.417 107.923 883.982 107.688C884.558 107.453 885.054 107.128 885.47 106.712C885.897 106.296 886.228 105.805 886.462 105.24C886.697 104.675 886.814 104.061 886.814 103.4C886.814 102.739 886.697 102.125 886.462 101.56C886.228 100.995 885.897 100.504 885.47 100.088C885.054 99.672 884.558 99.3467 883.982 99.112C883.417 98.8773 882.798 98.76 882.126 98.76C881.454 98.76 880.83 98.8773 880.254 99.112C879.678 99.336 879.177 99.6613 878.75 100.088C878.334 100.504 878.004 100.995 877.758 101.56C877.524 102.115 877.406 102.728 877.406 103.4C877.406 104.061 877.524 104.675 877.758 105.24C878.004 105.795 878.334 106.285 878.75 106.712C879.177 107.139 879.678 107.469 880.254 107.704C880.83 107.928 881.454 108.04 882.126 108.04ZM881.086 96.888L883.278 94.904H884.798L882.206 96.888H881.086ZM895.516 109.096C894.673 109.096 893.895 108.957 893.18 108.68C892.465 108.392 891.847 107.992 891.324 107.48C890.801 106.968 890.391 106.365 890.092 105.672C889.804 104.979 889.66 104.221 889.66 103.4C889.66 102.579 889.804 101.821 890.092 101.128C890.391 100.435 890.801 99.832 891.324 99.32C891.857 98.808 892.481 98.4133 893.196 98.136C893.911 97.848 894.689 97.704 895.532 97.704C896.343 97.704 897.105 97.8427 897.82 98.12C898.535 98.3867 899.137 98.792 899.628 99.336L898.876 100.088C898.417 99.6187 897.911 99.2827 897.356 99.08C896.801 98.8667 896.204 98.76 895.564 98.76C894.892 98.76 894.268 98.8773 893.692 99.112C893.116 99.336 892.615 99.6613 892.188 100.088C891.761 100.504 891.425 100.995 891.18 101.56C890.945 102.115 890.828 102.728 890.828 103.4C890.828 104.072 890.945 104.691 891.18 105.256C891.425 105.811 891.761 106.301 892.188 106.728C892.615 107.144 893.116 107.469 893.692 107.704C894.268 107.928 894.892 108.04 895.564 108.04C896.204 108.04 896.801 107.933 897.356 107.72C897.911 107.507 898.417 107.165 898.876 106.696L899.628 107.448C899.137 107.992 898.535 108.403 897.82 108.68C897.105 108.957 896.337 109.096 895.516 109.096ZM908.516 109V98.824H904.58V97.8H913.636V98.824H909.7V109H908.516ZM923.719 97.8H924.887V109H923.719V97.8ZM916.711 109H915.527V97.8H916.711V109ZM923.831 103.832H916.583V102.792H923.831V103.832ZM933.055 109.096C931.625 109.096 930.5 108.685 929.679 107.864C928.857 107.043 928.447 105.827 928.447 104.216V97.8H929.631V104.168C929.631 105.491 929.929 106.467 930.527 107.096C931.124 107.725 931.967 108.04 933.055 108.04C934.153 108.04 935.001 107.725 935.599 107.096C936.196 106.467 936.495 105.491 936.495 104.168V97.8H937.647V104.216C937.647 105.827 937.236 107.043 936.415 107.864C935.604 108.685 934.484 109.096 933.055 109.096ZM942.271 102.808H948.191V103.816H942.271V102.808ZM942.399 107.976H949.135V109H941.215V97.8H948.895V98.824H942.399V107.976ZM942.431 96.888L944.511 95.384H945.631L947.711 96.888H946.623L944.623 95.672H945.519L943.519 96.888H942.431ZM946.527 95.56L948.463 93.832H949.839L947.535 95.56H946.527Z" fill="#1F3864"/>
<path d="M860.601 170V169.896C861.121 169.203 861.555 168.579 861.901 168.024C862.248 167.435 862.508 166.845 862.681 166.256C862.889 165.667 863.028 165.025 863.097 164.332C863.167 163.639 863.201 162.824 863.201 161.888V139.996H858.625V139.476C861.087 138.436 863.427 137.257 865.645 135.94C867.864 134.588 869.961 132.959 871.937 131.052H872.509V161.888C872.509 162.824 872.544 163.639 872.613 164.332C872.683 165.025 872.804 165.667 872.977 166.256C873.185 166.845 873.463 167.435 873.809 168.024C874.156 168.579 874.589 169.203 875.109 169.896V170H860.601ZM880.609 170V169.896C881.129 169.203 881.562 168.579 881.909 168.024C882.256 167.435 882.516 166.845 882.689 166.256C882.897 165.667 883.036 165.025 883.105 164.332C883.174 163.639 883.209 162.824 883.209 161.888V139.996H878.633V139.476C881.094 138.436 883.434 137.257 885.653 135.94C887.872 134.588 889.969 132.959 891.945 131.052H892.517V161.888C892.517 162.824 892.552 163.639 892.621 164.332C892.69 165.025 892.812 165.667 892.985 166.256C893.193 166.845 893.47 167.435 893.817 168.024C894.164 168.579 894.597 169.203 895.117 169.896V170H880.609ZM915.703 170.78C913.415 170.78 911.248 170.277 909.203 169.272C907.192 168.267 905.407 166.88 903.847 165.112C902.322 163.309 901.108 161.212 900.207 158.82C899.34 156.393 898.907 153.776 898.907 150.968C898.907 148.125 899.34 145.508 900.207 143.116C901.108 140.689 902.322 138.592 903.847 136.824C905.372 135.056 907.158 133.669 909.203 132.664C911.248 131.659 913.415 131.156 915.703 131.156C918.026 131.156 920.227 131.659 922.307 132.664C924.387 133.669 926.207 135.056 927.767 136.824C929.327 138.592 930.558 140.689 931.459 143.116C932.395 145.508 932.863 148.125 932.863 150.968C932.863 153.776 932.395 156.393 931.459 158.82C930.558 161.212 929.31 163.309 927.715 165.112C926.155 166.88 924.335 168.267 922.255 169.272C920.175 170.277 917.991 170.78 915.703 170.78ZM915.703 169.636C917.055 169.636 918.182 169.168 919.083 168.232C920.019 167.261 920.764 165.944 921.319 164.28C921.908 162.616 922.324 160.657 922.567 158.404C922.81 156.116 922.931 153.637 922.931 150.968C922.931 148.264 922.81 145.785 922.567 143.532C922.324 141.244 921.926 139.268 921.371 137.604C920.816 135.94 920.071 134.64 919.135 133.704C918.199 132.768 917.055 132.3 915.703 132.3C914.351 132.3 913.224 132.768 912.323 133.704C911.456 134.64 910.763 135.94 910.243 137.604C909.723 139.268 909.359 141.244 909.151 143.532C908.943 145.785 908.839 148.264 908.839 150.968C908.839 153.637 908.943 156.116 909.151 158.404C909.359 160.657 909.723 162.616 910.243 164.28C910.763 165.944 911.456 167.261 912.323 168.232C913.224 169.168 914.351 169.636 915.703 169.636Z" fill="#1F3864"/>
<path d="M857.996 206V194.552H853.568V193.4H863.756V194.552H859.328V206H857.996ZM868.802 206V201.32L869.108 202.148L863.762 193.4H865.184L869.882 201.086H869.126L873.824 193.4H875.156L869.81 202.148L870.116 201.32V206H868.802ZM869.684 192.5L869.234 191.942C869.594 191.774 869.858 191.588 870.026 191.384C870.206 191.18 870.296 190.94 870.296 190.664C870.296 190.412 870.206 190.202 870.026 190.034C869.846 189.866 869.606 189.782 869.306 189.782C868.934 189.782 868.574 189.896 868.226 190.124L867.92 189.494C868.124 189.338 868.358 189.224 868.622 189.152C868.898 189.068 869.162 189.026 869.414 189.026C869.918 189.026 870.326 189.17 870.638 189.458C870.962 189.734 871.124 190.106 871.124 190.574C871.124 190.994 871.004 191.366 870.764 191.69C870.536 192.002 870.176 192.272 869.684 192.5ZM882.023 206V193.4H887.153C888.497 193.4 889.673 193.67 890.681 194.21C891.701 194.738 892.493 195.476 893.057 196.424C893.621 197.372 893.903 198.464 893.903 199.7C893.903 200.936 893.621 202.028 893.057 202.976C892.493 203.924 891.701 204.668 890.681 205.208C889.673 205.736 888.497 206 887.153 206H882.023ZM883.355 204.848H887.081C888.197 204.848 889.163 204.632 889.979 204.2C890.807 203.756 891.449 203.15 891.905 202.382C892.361 201.602 892.589 200.708 892.589 199.7C892.589 198.68 892.361 197.786 891.905 197.018C891.449 196.25 890.807 195.65 889.979 195.218C889.163 194.774 888.197 194.552 887.081 194.552H883.355V204.848ZM880.115 200.114V199.052H887.099V200.114H880.115ZM902.4 206.108C901.452 206.108 900.57 205.952 899.754 205.64C898.95 205.316 898.248 204.866 897.648 204.29C897.06 203.702 896.598 203.024 896.262 202.256C895.938 201.476 895.776 200.624 895.776 199.7C895.776 198.776 895.938 197.93 896.262 197.162C896.598 196.382 897.06 195.704 897.648 195.128C898.248 194.54 898.95 194.09 899.754 193.778C900.558 193.454 901.44 193.292 902.4 193.292C903.348 193.292 904.224 193.454 905.028 193.778C905.832 194.09 906.528 194.534 907.116 195.11C907.716 195.686 908.178 196.364 908.502 197.144C908.838 197.924 909.006 198.776 909.006 199.7C909.006 200.624 908.838 201.476 908.502 202.256C908.178 203.036 907.716 203.714 907.116 204.29C906.528 204.866 905.832 205.316 905.028 205.64C904.224 205.952 903.348 206.108 902.4 206.108ZM902.4 204.92C903.156 204.92 903.852 204.794 904.488 204.542C905.136 204.278 905.694 203.912 906.162 203.444C906.642 202.964 907.014 202.412 907.278 201.788C907.542 201.152 907.674 200.456 907.674 199.7C907.674 198.944 907.542 198.254 907.278 197.63C907.014 196.994 906.642 196.442 906.162 195.974C905.694 195.494 905.136 195.128 904.488 194.876C903.852 194.612 903.156 194.48 902.4 194.48C901.644 194.48 900.942 194.612 900.294 194.876C899.646 195.128 899.082 195.494 898.602 195.974C898.134 196.442 897.762 196.994 897.486 197.63C897.222 198.254 897.09 198.944 897.09 199.7C897.09 200.444 897.222 201.134 897.486 201.77C897.762 202.406 898.134 202.964 898.602 203.444C899.082 203.912 899.646 204.278 900.294 204.542C900.942 204.794 901.644 204.92 902.4 204.92ZM899.43 192.374L901.77 190.682H903.03L905.37 192.374H904.146L901.896 191.006H902.904L900.654 192.374H899.43ZM905.118 190.88L902.508 188.936H904.074L906.234 190.88H905.118ZM911.991 206V193.4H913.089L921.783 204.344H921.207V193.4H922.521V206H921.423L912.747 195.056H913.323V206H911.991ZM932.16 206.108C931.2 206.108 930.312 205.952 929.496 205.64C928.692 205.316 927.99 204.866 927.39 204.29C926.802 203.714 926.34 203.036 926.004 202.256C925.68 201.476 925.518 200.624 925.518 199.7C925.518 198.776 925.68 197.924 926.004 197.144C926.34 196.364 926.808 195.686 927.408 195.11C928.008 194.534 928.71 194.09 929.514 193.778C930.33 193.454 931.218 193.292 932.178 193.292C933.138 193.292 934.014 193.442 934.806 193.742C935.61 194.042 936.294 194.498 936.858 195.11L936.03 195.956C935.502 195.428 934.92 195.05 934.284 194.822C933.648 194.594 932.964 194.48 932.232 194.48C931.452 194.48 930.732 194.612 930.072 194.876C929.424 195.128 928.854 195.494 928.362 195.974C927.882 196.442 927.504 196.994 927.228 197.63C926.964 198.254 926.832 198.944 926.832 199.7C926.832 200.444 926.964 201.134 927.228 201.77C927.504 202.406 927.882 202.964 928.362 203.444C928.854 203.912 929.424 204.278 930.072 204.542C930.732 204.794 931.446 204.92 932.214 204.92C932.934 204.92 933.612 204.812 934.248 204.596C934.896 204.38 935.49 204.014 936.03 203.498L936.786 204.506C936.186 205.034 935.484 205.436 934.68 205.712C933.876 205.976 933.036 206.108 932.16 206.108ZM935.508 204.344V199.7H936.786V204.506L935.508 204.344Z" fill="#1F3864"/>
</svg>
