<svg width="142" height="60" viewBox="0 0 142 60" fill="none" xmlns="http://www.w3.org/2000/svg">
<g id="Logo">
<path id="Vector" d="M90.3423 49.0366V59.9726H96.2427V57.8604H92.8601V55.5033H95.9825V53.414H92.8601V51.057H96.2427V49.0366H90.3423Z" fill="#EEAF1F"/>
<path id="Vector_2" d="M84.6562 55.6793H87.1511C87.1511 55.7405 87.1511 55.8094 87.1511 55.8783C87.1511 55.9472 87.1511 56.062 87.1511 56.1997C87.2324 57.2203 86.9203 58.2334 86.2786 59.0313C85.9221 59.3599 85.5015 59.6111 85.0431 59.7691C84.5848 59.9272 84.0987 59.9886 83.6154 59.9496C82.9965 59.965 82.3812 59.8503 81.8094 59.6129C81.3134 59.3959 80.8889 59.043 80.5849 58.5951C80.3362 58.184 80.1771 57.725 80.1181 57.2482C80.0039 56.337 79.9553 55.4189 79.9727 54.5008C79.9555 53.5852 80.0041 52.6696 80.1181 51.761C80.1736 51.2834 80.333 50.8237 80.5849 50.4141C80.8811 49.9681 81.2977 49.6151 81.7864 49.3963C82.3503 49.1594 82.958 49.0447 83.5695 49.0596C84.0546 49.0217 84.5421 49.0859 85.0009 49.248C85.4596 49.4102 85.8792 49.6666 86.2327 50.0009C86.8844 50.7973 87.205 51.8139 87.1281 52.8401V52.9472H84.6639C84.7 52.4243 84.6135 51.9002 84.4113 51.4167C84.3319 51.2763 84.2141 51.1615 84.0718 51.0856C83.9295 51.0097 83.7686 50.9759 83.6078 50.9881C83.4296 50.9754 83.252 51.0197 83.1006 51.1147C82.9493 51.2096 82.8321 51.3502 82.766 51.5161C82.5621 52.422 82.4874 53.3521 82.544 54.2788V54.4702C82.486 55.4603 82.5607 56.4538 82.766 57.4242C82.8285 57.5937 82.9444 57.7383 83.0962 57.8363C83.248 57.9343 83.4275 57.9804 83.6078 57.9675C83.7611 57.9884 83.9173 57.9666 84.059 57.9045C84.2008 57.8424 84.3227 57.7424 84.4113 57.6155C84.5939 57.1511 84.6698 56.6515 84.6333 56.1538L84.6562 55.6793Z" fill="#EEAF1F"/>
<path id="Vector_3" d="M70.1538 59.9649V49.0366H72.7941L74.8986 55.7176C74.8144 54.6385 74.7532 53.7049 74.7149 52.9243C74.6767 52.1437 74.6537 51.4779 74.6537 50.9422V49.0366H76.9113V59.9649H74.2634L72.1436 53.0773C72.2431 53.9344 72.3119 54.7686 72.3655 55.5798C72.4191 56.391 72.4344 57.1716 72.4344 57.9292V59.9496L70.1538 59.9649Z" fill="#EEAF1F"/>
<path id="Vector_4" d="M62.279 49.0366L59.9219 59.9649H62.4779L62.7917 57.7073H64.7891L65.1029 59.9649H67.636L65.3401 49.0366H62.279ZM63.8095 51.034L64.5748 55.8324H63.1208L63.8095 51.034Z" fill="#EEAF1F"/>
<path id="Vector_5" d="M53.226 53.636H53.5397C53.936 53.675 54.333 53.5689 54.657 53.3375C54.7799 53.1987 54.8726 53.0358 54.9292 52.8593C54.9859 52.6828 55.0052 52.4964 54.9861 52.312C55.0141 51.8812 54.8983 51.4533 54.657 51.0952C54.3293 50.8729 53.9338 50.7727 53.5397 50.8121H53.226V53.636ZM50.7388 59.9649V49.0366H53.5933C54.2744 49.0156 54.956 49.0591 55.629 49.1667C55.9999 49.2263 56.3514 49.3732 56.6544 49.5953C56.9578 49.8308 57.1973 50.1386 57.3509 50.4906C57.5048 50.986 57.5797 51.5025 57.5728 52.0212C57.5949 52.5502 57.4844 53.0764 57.2514 53.5518C57.0077 53.9789 56.6465 54.3269 56.2106 54.5543C56.9759 54.8834 57.4044 55.6793 57.4504 56.9191C57.4504 57.0492 57.4504 57.2328 57.4504 57.4854C57.4504 58.6563 57.6723 59.6588 58.0549 59.9496H55.1009C55.0352 59.7296 54.9891 59.5043 54.9632 59.2762C54.9248 59.0229 54.9069 58.767 54.9096 58.5109C54.9096 58.3425 54.9096 57.868 54.9096 57.6384C54.9096 57.4088 54.9096 57.2405 54.9096 57.1716C54.9528 56.7218 54.8623 56.2692 54.6494 55.8706C54.5332 55.7416 54.3878 55.6424 54.2254 55.5811C54.0629 55.5199 53.8882 55.4984 53.7157 55.5186H53.1953V59.942L50.7388 59.9649Z" fill="#EEAF1F"/>
<path id="Vector_6" d="M40.5909 49.0366H43.1546V55.817C43.1082 56.4333 43.173 57.0528 43.346 57.6461C43.4146 57.7649 43.5161 57.8614 43.6383 57.9238C43.7605 57.9863 43.8982 58.0121 44.0347 57.9981C44.1722 58.0124 44.3107 57.9859 44.4332 57.9219C44.5557 57.8579 44.6566 57.7594 44.7235 57.6384C44.8982 57.0481 44.9631 56.4308 44.9148 55.817V49.0366H47.4249V55.9242C47.4387 56.4872 47.4055 57.0504 47.3255 57.6078C47.2706 57.9489 47.1567 58.2778 46.9887 58.5797C46.7432 59.0383 46.3493 59.3998 45.8714 59.6052C45.2675 59.8528 44.6182 59.9702 43.9658 59.9496C43.3606 59.9677 42.7582 59.8581 42.198 59.6282C41.7448 59.4225 41.3674 59.0799 41.119 58.6486C40.9034 58.2689 40.7655 57.85 40.7134 57.4165C40.6154 56.5784 40.5745 55.7347 40.5909 54.891V49.0366Z" fill="#EEAF1F"/>
<path id="Vector_7" d="M31.1703 56.1921H33.4662V56.4982C33.4365 56.912 33.5074 57.3268 33.6728 57.7073C33.7488 57.8241 33.8553 57.9179 33.9807 57.9785C34.1062 58.0392 34.2458 58.0645 34.3845 58.0517C34.5033 58.0608 34.6226 58.042 34.7329 57.9968C34.8432 57.9516 34.9414 57.8813 35.0197 57.7915C35.1906 57.5748 35.2727 57.3012 35.2493 57.0262C35.2493 56.5211 34.8743 56.0313 34.1243 55.5722L33.9024 55.4268L33.7799 55.3502C33.0794 54.9489 32.4402 54.4489 31.882 53.8656C31.6893 53.6097 31.537 53.3258 31.4305 53.0238C31.3362 52.685 31.2898 52.3346 31.2927 51.983C31.2713 51.5877 31.3338 51.1923 31.4763 50.823C31.6187 50.4536 31.8379 50.1186 32.1193 49.8402C32.7544 49.2935 33.579 49.0186 34.4151 49.0749C35.2821 49.0143 36.1393 49.2881 36.8105 49.8402C37.0984 50.1282 37.3212 50.4747 37.4638 50.8563C37.6064 51.2378 37.6655 51.6455 37.637 52.0518C37.6401 52.1054 37.6401 52.159 37.637 52.2126C37.6339 52.2686 37.6339 52.3248 37.637 52.3809H35.3411V52.2585C35.3636 51.9002 35.2868 51.5428 35.1192 51.2253C35.0547 51.1133 34.9606 51.0212 34.8472 50.9591C34.7338 50.897 34.6055 50.8673 34.4764 50.8733C34.3676 50.8704 34.2594 50.8908 34.1591 50.933C34.0588 50.9752 33.9687 51.0384 33.8947 51.1182C33.7474 51.3022 33.6713 51.5331 33.6805 51.7687C33.6805 52.2126 34.0937 52.6794 34.9202 53.1768L35.2646 53.3911L35.5401 53.5595C36.1887 53.9034 36.7654 54.3684 37.239 54.9293C37.4028 55.1781 37.5244 55.4522 37.5987 55.7405C37.6799 56.0633 37.721 56.3949 37.7212 56.7278C37.7714 57.1677 37.7216 57.6134 37.5754 58.0314C37.4293 58.4494 37.1905 58.829 36.877 59.1417C36.5635 59.4545 36.1834 59.6924 35.765 59.8376C35.3467 59.9828 34.9009 60.0315 34.461 59.9802C33.5687 60.0586 32.6811 59.7839 31.9892 59.2149C31.6957 58.8914 31.4711 58.5115 31.329 58.0984C31.1869 57.6853 31.1303 57.2476 31.1627 56.8119V56.5441C31.1627 56.4676 31.1627 56.3528 31.1627 56.1921" fill="#EEAF1F"/>
<path id="Vector_8" d="M21.436 59.9649V49.0366H24.0763L26.1808 55.7176C26.0966 54.6385 26.0278 53.7049 25.9895 52.9243C25.9512 52.1437 25.9283 51.4779 25.9283 50.9422V49.0366H28.2241V59.9649H25.5456L23.4258 53.0773C23.6106 54.6882 23.7077 56.3079 23.7166 57.9292V59.9496L21.436 59.9649Z" fill="#EEAF1F"/>
<path id="Vector_9" d="M18.1449 49.0366H15.6118V59.9649H18.1449V49.0366Z" fill="#EEAF1F"/>
<path id="Vector_10" d="M129.709 57.1487C126.326 59.1001 120.809 58.9318 121.222 58.8706C132.984 57.0262 136.941 49.4805 136.099 42.7995C135.866 41.2117 135.271 39.6988 134.359 38.3783C133.448 37.0577 132.244 35.965 130.842 35.1849C129.365 34.4196 123.954 32.7206 120.893 30.662C116.393 27.6009 117.112 21.8918 119.492 18.2491C120.462 16.6729 121.604 15.2098 122.898 13.8869C122.898 13.8869 119.469 19.1521 118.949 21.226C115.513 35.0012 133.581 28.8789 137.002 40.8327C137.767 43.978 137.464 47.2881 136.143 50.2428C134.821 53.1976 132.555 55.6295 129.701 57.1563M139.803 35.8813C137.423 32.3074 133.719 29.6672 127.75 27.4631C122.699 25.5729 121.826 22.0219 121.735 21.1342C121.643 20.2465 121.459 18.1572 125.079 16.6419C127.236 15.8503 129.516 15.4462 131.813 15.4481C133.673 15.4237 135.511 15.849 137.17 16.6879C137.461 16.8486 138.915 14.7746 139.122 13.8333C139.34 13.2737 139.406 12.6665 139.313 12.0732C139.137 11.5145 137.178 10.2901 135.487 10.2212C133.309 10.2853 131.147 10.6038 129.043 11.1701C127.016 11.7644 125.036 12.5087 123.12 13.3971C121.2 14.3159 119.221 15.1059 117.196 15.7619C115.108 16.3254 112.954 16.6034 110.791 16.5884C109.2 16.3973 107.636 16.0224 106.13 15.4711C106.092 15.4098 106.13 15.6241 106.283 15.9915C106.489 16.4418 106.777 16.8495 107.133 17.193C107.002 17.2826 106.852 17.3397 106.695 17.3597C106.538 17.3797 106.379 17.3619 106.23 17.3077C105.897 17.1705 105.595 16.9675 105.342 16.7108C105.649 17.1309 105.982 17.5321 106.337 17.9123C106.87 18.3318 107.508 18.5965 108.181 18.6776C107.998 18.8273 107.804 18.9629 107.6 19.0832C107.372 19.1717 107.139 19.2483 106.903 19.3128C107.588 19.5427 108.311 19.6338 109.031 19.5807C109.51 19.4906 109.979 19.3548 110.431 19.1751C110.382 19.3523 110.29 19.5148 110.163 19.6483C110.036 19.7817 109.879 19.882 109.704 19.9403C109.293 20.1407 108.845 20.2528 108.388 20.2694C109.185 20.6952 110.106 20.8253 110.99 20.6368C111.588 20.506 112.171 20.311 112.727 20.0551C112.574 20.3949 112.302 20.667 111.962 20.8204C111.536 20.9697 111.102 21.0923 110.661 21.1878C110.661 21.1878 112.513 22.0755 113.722 21.0117C114.301 20.3876 115.005 19.8922 115.788 19.5577C114.918 20.8607 114.15 22.2296 113.492 23.652C112.842 25.5958 114.097 29.2003 114.097 29.2003C114.05 28.2647 114.094 27.3266 114.227 26.3994C114.366 25.8752 114.548 25.3633 114.77 24.8688C114.77 24.8688 115.23 28.3126 115.536 29.4605C116.005 30.6022 116.617 31.6796 117.357 32.6671C117.816 33.3405 119.071 34.8022 119.071 34.8022L117.977 30.6161C118.746 31.5966 119.442 32.6326 120.059 33.7155C120.659 35.0029 121.431 36.2026 122.355 37.2818C122.355 37.2818 121.995 35.6058 121.964 35.292C121.934 34.9783 121.75 33.5395 121.75 33.5395C122.291 33.7051 122.775 34.0198 123.146 34.4475C123.517 34.8751 123.76 35.3985 123.847 35.9578C124.364 37.4877 125.028 38.9639 125.829 40.3659C125.829 40.3659 125.898 38.8965 125.829 37.917C125.851 37.1072 125.922 36.2996 126.043 35.4986C126.575 36.9778 127.024 38.4852 127.39 40.0138C127.699 41.313 128.252 42.5414 129.02 43.6337C129.02 43.6337 129.02 41.9883 129.058 41.6056C129.059 41.3127 129.125 41.0237 129.251 40.7591C129.377 40.4945 129.559 40.261 129.785 40.0751C130.234 40.3769 130.615 40.7677 130.906 41.2232C131.197 41.6787 131.391 42.1892 131.477 42.723C131.806 44.3836 128.247 48.2866 128.247 48.2866C129.382 48.1197 130.438 47.6066 131.27 46.8173C131.612 46.4372 132.019 46.1211 132.472 45.8836C132.472 45.8836 133.237 45.0035 132.234 47.0545C130.987 49.534 127.482 50.835 127.199 50.8809C127.976 51.1594 128.821 51.1914 129.617 50.9728C130.076 50.659 128.683 52.3962 128.087 52.8171C127.082 53.4335 125.889 53.6671 124.727 53.4753C124.727 53.4753 125.056 54.0645 126.686 54.1793C127.053 54.1793 127.734 54.3554 127.604 54.562C127.314 55.0441 125.752 55.4497 125.752 55.4497C124.778 55.6789 123.768 55.7049 122.783 55.5262C121.856 55.3884 120.92 55.3193 119.982 55.3196C119.982 55.3196 120.189 55.7482 121.758 56.3834C122.326 56.7224 122.99 56.8649 123.648 56.789C121.942 57.3368 120.19 57.7287 118.413 57.9599C116.174 58.0878 113.942 57.598 111.962 56.5441C113.072 57.625 114.451 58.3887 115.957 58.7558C125.293 61.0516 133.711 59.9726 140.545 48.8759C142.696 45.3785 142.183 39.4475 139.78 35.866M122.944 4.97895C123.273 5.40751 123.013 6.16515 122.355 6.67789C121.696 7.19064 120.9 7.25951 120.564 6.83095C120.227 6.40239 120.495 5.65241 121.153 5.13966C121.811 4.62692 122.615 4.55039 122.944 4.97895ZM122.309 6.97635C121.383 7.74164 120.296 7.94827 119.89 7.45083C119.485 6.9534 119.89 5.92026 120.824 5.15497C121.758 4.38968 122.837 4.18305 123.242 4.68814C123.648 5.19323 123.242 6.21872 122.309 6.98401M139.145 0.165289C138.582 -0.004141 137.988 -0.0439613 137.408 0.0488133C136.827 0.141588 136.275 0.36455 135.793 0.700989C134.798 1.3821 131.921 3.90755 130.52 4.7111C129.12 5.51465 126.969 6.65493 126.61 6.81564C126.08 7.10643 125.472 7.22165 124.872 7.14472C125.872 6.38161 126.584 5.30273 126.893 4.08356C127.321 2.13208 124.405 1.51985 123.204 1.73413C122.615 1.84892 121.214 2.13208 118.842 4.42029C117.297 5.95445 115.513 7.22854 113.561 8.19316C112.674 8.68295 108.87 10.2518 108.021 10.1446C107.171 10.0375 106.062 9.73139 105.954 8.46101C105.798 6.84969 106.002 5.22376 106.551 3.70092C106.766 3.06573 108.082 0.234165 108.082 0.234165C106.883 1.13148 105.921 2.30851 105.281 3.66266C104.34 5.79781 104.569 5.52996 104.393 6.433C104.317 6.8233 104.309 8.35387 104.217 8.36153C103.842 8.36153 103.72 7.25951 103.72 7.25951C103.683 8.25949 103.735 9.26074 103.873 10.2518C104.181 10.9364 104.664 11.5276 105.273 11.966C105.139 11.986 105.002 11.9787 104.87 11.9445C104.739 11.9103 104.616 11.85 104.508 11.7671C104.271 11.6217 103.536 11.1242 103.536 11.1242C103.924 12.0976 104.563 12.9507 105.388 13.5961C106.125 13.9662 106.97 14.0559 107.768 13.8486C107.579 13.9899 107.373 14.108 107.156 14.2007C106.75 14.3767 106.207 14.5604 106.207 14.5604C106.207 14.5604 108.579 14.966 109.482 14.6292C110.236 14.2976 110.917 13.8218 111.487 13.2288L110.875 13.994C110.699 14.2007 110.194 14.8359 110.194 14.8359C111.133 14.6235 112.017 14.2168 112.788 13.642C113.37 13.1446 114.878 11.3462 115.436 10.9482C116.661 10.1829 117.135 9.86149 117.518 9.97628C118.536 10.2594 117.089 11.5069 116.86 12.4482C116.63 13.3895 116.691 14.2925 118.819 13.9787C120.556 13.7185 123.112 12.3487 125.791 11.3921C128.469 10.4355 135.441 7.25951 135.441 7.25951C135.906 7.52818 136.434 7.66963 136.972 7.66963C137.509 7.66963 138.037 7.52818 138.502 7.25951C139.71 6.35767 140.552 5.05083 140.874 3.57847C140.987 2.89902 140.877 2.20131 140.559 1.59004C140.242 0.978762 139.735 0.486895 139.114 0.188247M122.936 5.00191C123.227 5.41517 122.936 6.13454 122.247 6.61667C121.559 7.0988 120.786 7.16002 120.495 6.75442C120.204 6.34882 120.495 5.62179 121.184 5.13966C121.872 4.65753 122.638 4.59631 122.936 5.00191ZM117.778 3.56317C117.778 3.56317 117.311 4.53508 117.112 4.82589C116.875 5.1101 116.619 5.37851 116.347 5.62945L116.439 5.07079C116.439 5.07079 115.574 5.98913 115.329 6.20341C115.084 6.41769 114.265 6.9687 114.265 6.9687C114.265 6.9687 114.793 6.14984 114.633 6.27229C114.472 6.39474 113.76 6.92278 113.225 7.34369C112.757 7.74595 112.209 8.04343 111.618 8.21612L112.436 7.40492C112.436 7.40492 110.944 8.26204 110.554 8.4304C109.574 8.85131 109.36 8.78244 109.36 8.78244L109.865 8.35387C109.865 8.35387 108.993 8.62938 108.671 8.46101C108.005 8.11663 108.442 7.02227 108.748 6.2876C109.054 5.55292 109.666 4.29784 109.666 4.29784C108.836 5.11421 108.212 6.11622 107.845 7.22125C107.755 7.47109 107.721 7.7374 107.745 8.0017C107.769 8.26601 107.85 8.52197 107.982 8.75182C108.208 9.04609 108.524 9.25945 108.881 9.36012C109.238 9.46078 109.618 9.44337 109.964 9.31048C111.256 8.90762 112.517 8.41143 113.737 7.82582C114.503 7.45849 116.799 6.06566 117.464 5.01722C117.747 4.59146 117.867 4.07778 117.801 3.57082M141.525 7.05288C141.525 7.05288 141.066 7.86409 138.908 8.49162C136.091 9.31814 137.002 8.75948 133.604 9.211C132.119 9.31458 130.656 9.63692 129.265 10.1676C128.373 10.5553 127.529 11.0431 126.747 11.6217C127.342 11.5042 127.91 11.2785 128.423 10.9559C129.456 10.4278 130.719 10.1906 133.107 10.0987C136.068 10.0145 137.163 9.86914 138.311 9.46354C142.015 8.1702 141.556 7.02992 141.556 7.02992M114.166 57.539C114.158 56.2977 114.001 55.0619 113.699 53.8579C113.631 53.5688 113.504 53.2964 113.328 53.0571C113.152 52.8178 112.929 52.6164 112.674 52.4651C112.13 52.1054 111.679 52.3197 111.48 52.2355C111.211 52.0627 110.956 51.8709 110.714 51.6615C110.654 51.8931 110.673 52.1383 110.768 52.3579C110.921 52.71 111.411 53.1232 111.533 53.46C111.656 53.7967 111.893 54.3936 111.625 54.6232C111.357 54.8528 111.212 54.7686 111.051 54.1105C110.89 53.4523 109.903 53.1079 109.743 53.0238C109.305 52.7689 108.816 52.6147 108.311 52.5722C107.732 52.6089 107.186 52.8599 106.781 53.2763C107.395 53.2233 108.012 53.3397 108.564 53.613C109.329 54.0033 109.551 54.2635 109.651 54.5696C109.75 54.8757 109.352 55.1972 108.985 54.8757C108.618 54.5543 108.357 54.0186 107.814 53.8503C107.151 53.766 106.485 53.7174 105.817 53.7049C105.249 53.6415 104.725 53.3686 104.347 52.9396C104.145 52.773 103.978 52.5671 103.857 52.3343C103.736 52.1015 103.663 51.8466 103.643 51.585C103.392 52.1273 103.299 52.7295 103.375 53.3222C103.565 54.1818 104.056 54.945 104.761 55.4727C105.456 55.7531 106.188 55.9359 106.934 56.016C107.447 56.016 107.271 55.9165 108.181 56.4599C109.092 57.0032 108.862 57.2252 108.885 57.2864C108.854 57.3756 108.795 57.4527 108.718 57.5072C108.64 57.5618 108.548 57.591 108.453 57.591C108.358 57.591 108.266 57.5618 108.189 57.5072C108.111 57.4527 108.053 57.3756 108.021 57.2864C107.931 57.1013 107.798 56.9407 107.632 56.8181C107.467 56.6955 107.275 56.6147 107.072 56.5823C106.919 56.5135 106.023 56.6359 105.901 56.5823C105.778 56.5288 105.005 56.1997 105.005 56.1997C105.086 56.4104 105.199 56.6067 105.342 56.7813C105.533 56.9879 105.832 57.3553 106.107 57.3935C106.413 57.4148 106.712 57.4954 106.988 57.6308C107.382 57.8092 107.712 58.1027 107.936 58.4726C108.087 58.6615 108.291 58.8001 108.522 58.8699C108.753 58.9396 109 58.9372 109.23 58.8629C110.056 58.6869 109.911 58.2277 110.072 58.0976C110.232 57.9675 110.584 57.4012 110.898 57.9905C111.212 58.5797 110.6 58.7558 110.385 58.9088C109.972 59.0222 109.55 59.0965 109.123 59.1308C108.931 59.1843 108.357 59.8501 108.357 59.8501C108.704 59.957 109.067 59.9985 109.429 59.9726C110.16 59.9084 110.873 59.7113 111.533 59.3909C111.901 59.1614 112.253 59.3909 112.544 59.2685C112.649 59.2263 112.744 59.1595 112.819 59.0737C112.894 58.9878 112.947 58.8853 112.975 58.7747C113.003 58.6641 113.004 58.5485 112.978 58.4374C112.952 58.3263 112.9 58.223 112.827 58.1359C112.081 57.3473 111.107 56.812 110.041 56.6053C108.549 56.2227 109.429 55.84 109.674 55.84C109.919 55.84 111.862 56.0007 112.283 56.3681C112.704 56.7354 114.036 57.6078 114.036 57.6078" fill="#EEAF1F"/>
<path id="Vector_11" d="M111.816 45.876H0.0380859V46.7714H111.816V45.876Z" fill="#0B67B2"/>
<path id="Vector_12" d="M111.816 31.5957V43.4576H108.189L107.952 42.1107C107.456 42.5864 106.856 42.9401 106.199 43.1439C105.517 43.4411 104.778 43.5873 104.033 43.5724C102.632 43.608 101.262 43.1581 100.155 42.299C99.0472 41.4398 98.2708 40.2243 97.9571 38.8582C97.5995 36.7042 97.4534 34.5204 97.5209 32.338C97.4955 30.6262 97.5978 28.9148 97.827 27.2182C97.9334 26.3165 98.2593 25.4547 98.7759 24.7081C100.184 22.5729 102.472 21.8459 104.898 21.8459C107.107 21.8459 108.776 22.4275 109.903 23.5907C111.021 24.7463 111.587 25.9402 111.587 28.236C111.587 28.3202 111.587 28.4503 111.587 28.6187C111.587 28.7871 111.587 28.9325 111.587 29.0319H106.605V28.7717C106.683 28.0339 106.536 27.2896 106.184 26.6366C106.06 26.3907 105.865 26.1869 105.626 26.0508C105.386 25.9146 105.112 25.8522 104.837 25.8713C104.511 25.8497 104.186 25.9331 103.911 26.1094C103.635 26.2856 103.423 26.5455 103.306 26.8509C102.648 28.4274 102.725 37.496 103.306 38.8353C103.418 39.1293 103.621 39.3797 103.885 39.5493C104.15 39.7188 104.462 39.7985 104.776 39.7766C105.082 39.7938 105.388 39.7257 105.658 39.5798C105.928 39.4339 106.153 39.2159 106.306 38.9501C106.691 38.2054 106.859 37.3672 106.788 36.5318V35.8047C106.788 35.6593 106.788 35.5139 106.788 35.3685H104.73V31.5957H111.816Z" fill="#0B67B2"/>
<path id="Vector_13" d="M81.6182 43.4653V21.7923H87.1053L91.4751 35.1619C91.3067 32.912 91.1792 30.9707 91.0924 29.3381C91.0082 27.7004 90.9623 26.3228 90.9623 25.1979V21.7923H95.6612V43.4653H90.1588L85.7584 29.6901C85.9522 31.4809 86.1028 33.2181 86.2099 34.9017C86.317 36.5854 86.3655 38.218 86.3553 39.7996V43.4653H81.6182Z" fill="#0B67B2"/>
<path id="Vector_14" d="M64.1771 43.4653H52.583V21.7923H57.8482V39.0878H64.1771V43.4653Z" fill="#0B67B2"/>
<path id="Vector_15" d="M40.4835 34.5803V30.6697C40.4835 28.2743 40.3151 27.1876 40.0014 26.6213C39.8252 26.3321 39.5706 26.0988 39.2672 25.9485C38.9638 25.7981 38.6239 25.7369 38.2871 25.7718C37.9522 25.7395 37.6152 25.8046 37.3164 25.9594C37.0177 26.1142 36.7701 26.352 36.6035 26.6443C36.2897 27.2259 36.1367 28.2973 36.1367 30.6697V34.5803C36.1367 36.9297 36.2897 38.0011 36.6035 38.5904C36.7706 38.8907 37.022 39.1355 37.3266 39.2946C37.6312 39.4537 37.9758 39.5202 38.3177 39.4858C38.6564 39.5238 38.9988 39.4614 39.3022 39.3062C39.6057 39.1511 39.8568 38.9101 40.0243 38.6134C40.3381 38.0317 40.4988 36.9603 40.4988 34.5803M30.7643 32.6288C30.7195 30.8533 30.8193 29.077 31.0628 27.3177C31.1797 26.3233 31.5085 25.3656 32.0271 24.5091C32.6494 23.5816 33.5264 22.8535 34.5525 22.4122C35.7447 21.9181 37.0277 21.6808 38.3177 21.7158C39.603 21.6785 40.8814 21.916 42.0676 22.4122C43.0966 22.8589 43.9796 23.5854 44.6161 24.5091C45.1438 25.3687 45.4805 26.3318 45.6033 27.333C45.8466 29.0872 45.9465 30.8584 45.9017 32.6288C45.9457 34.3967 45.8459 36.1652 45.6033 37.917C45.4821 38.9305 45.1455 39.9064 44.6161 40.7791C43.996 41.7083 43.1258 42.4432 42.1059 42.899C39.6888 43.8379 37.0078 43.8379 34.5908 42.899C33.5497 42.4544 32.6593 41.7182 32.0271 40.7791C31.5097 39.9193 31.181 38.9594 31.0628 37.9629C30.8193 36.2035 30.7195 34.4273 30.7643 32.6518" fill="#0B67B2"/>
<path id="Vector_16" d="M20.8926 35.4221H23.9538L22.4232 25.9479L20.8926 35.4221ZM14.3877 43.4883L19.3008 21.8153H25.5609L30.4128 43.4883H25.14L24.4818 39.3328H20.3416L19.6911 43.4883H14.3877Z" fill="#0B67B2"/>
<path id="Vector_17" d="M5.26518 30.2641H5.5866C6.40166 30.3291 7.2138 30.1071 7.88247 29.6365C8.14645 29.393 8.35228 29.0933 8.48475 28.7594C8.61722 28.4256 8.67293 28.0663 8.64776 27.708C8.66461 27.3766 8.60426 27.0458 8.47145 26.7417C8.33865 26.4375 8.13702 26.1684 7.88247 25.9555C7.27909 25.5075 6.53524 25.2903 5.78558 25.3433H5.45651H5.26518V30.2641ZM5.26518 39.6312H5.7167C6.6118 39.6918 7.49767 39.4192 8.20389 38.8659C8.49591 38.5789 8.72183 38.2316 8.8659 37.8483C9.00996 37.465 9.06872 37.0549 9.03806 36.6466C9.06499 36.2742 9.00504 35.9006 8.86294 35.5553C8.72083 35.21 8.50046 34.9024 8.2192 34.6568C7.4496 34.1675 6.54167 33.9419 5.63252 34.014H5.26518V39.6312ZM0 43.4577V21.7923H5.66313C6.89597 21.7642 8.12916 21.8307 9.35182 21.9913C10.0298 22.0996 10.6845 22.3221 11.288 22.6495C12.0618 23.0858 12.698 23.73 13.1247 24.5091C13.5594 25.3526 13.7727 26.2927 13.7446 27.2412C13.7589 28.1096 13.562 28.9684 13.1706 29.7437C12.7009 30.5733 12.0714 31.3016 11.3186 31.8865C12.2637 32.3046 13.063 32.9946 13.6145 33.8686C14.1486 34.7982 14.4136 35.8581 14.3798 36.9297C14.3821 37.8671 14.2082 38.7964 13.867 39.6695C13.549 40.4982 13.0616 41.2515 12.4359 41.8812C11.819 42.4618 11.0624 42.8731 10.2396 43.075C8.93404 43.3659 7.59678 43.4894 6.26006 43.4423L0 43.4577Z" fill="#0B67B2"/>
<path id="Vector_18" d="M74.3939 34.5803V30.6697C74.3939 28.2743 74.2332 27.1876 73.9117 26.6213C73.7333 26.327 73.4738 26.0904 73.1644 25.9397C72.8549 25.7891 72.5086 25.7308 72.1669 25.7718C71.832 25.7395 71.4949 25.8046 71.1962 25.9594C70.8975 26.1142 70.6499 26.352 70.4833 26.6443C70.1771 27.2259 70.0241 28.2973 70.0241 30.6697V34.5803C70.0241 36.9297 70.1771 38.0011 70.4833 38.5904C70.6762 38.8636 70.9319 39.0865 71.2289 39.2403C71.5258 39.3942 71.8554 39.4745 72.1898 39.4745C72.5243 39.4745 72.8539 39.3942 73.1508 39.2403C73.4478 39.0865 73.7035 38.8636 73.8964 38.5904C74.2025 38.0088 74.3633 36.9374 74.3633 34.5573M64.6517 32.6059C64.6093 30.8306 64.7066 29.0548 64.9426 27.2948C65.0665 26.302 65.3948 25.3457 65.9068 24.4861C66.5438 23.5623 67.434 22.8421 68.4705 22.4122C69.6604 21.9191 70.9406 21.6819 72.2281 21.7158C73.5185 21.6764 74.8024 21.9138 75.9933 22.4122C77.0145 22.8732 77.8846 23.6134 78.5035 24.5474C79.0339 25.4064 79.3733 26.3695 79.4984 27.3713C79.7342 29.1262 79.8314 30.8969 79.7892 32.6671C79.8307 34.4347 79.7334 36.2028 79.4984 37.9552C79.3717 38.9614 79.0326 39.9292 78.5035 40.7944C77.8795 41.7109 77.0094 42.4325 75.9933 42.876C73.5788 43.8144 70.9004 43.8144 68.4859 42.876C67.4526 42.4363 66.5679 41.7083 65.9374 40.7791C65.4234 39.9178 65.095 38.9585 64.9732 37.9629C64.7372 36.2029 64.64 34.427 64.6824 32.6518" fill="#0B67B2"/>
</g>
</svg>
